<?xml version="1.0" encoding="iso-8859-1"?>
<!-- Generator: Adobe Illustrator 19.0.0, SVG Export Plug-In . SVG Version: 6.00 Build 0)  -->
<svg version="1.1" id="Layer_1" xmlns="http://www.w3.org/2000/svg" xmlns:xlink="http://www.w3.org/1999/xlink" x="0px" y="0px"
	 viewBox="0 0 512 512" style="enable-background:new 0 0 512 512;" xml:space="preserve">
<circle style="fill:#2BA5F7;" cx="230.61" cy="168.584" r="168.584"/>
<path style="fill:#2197D8;" d="M196.986,287.797c-65.838-65.837-65.838-172.582,0-238.419
	c21.938-21.939,48.421-36.557,76.418-43.873C217.385-9.139,155.301,5.479,111.403,49.378c-65.837,65.837-65.837,172.582,0,238.419
	c43.899,43.899,105.982,58.517,162.002,43.873C245.409,324.354,218.925,309.736,196.986,287.797z"/>
<path style="fill:#666666;" d="M385.799,13.401c-1.825-1.823-4.298-2.849-6.878-2.849c-2.581,0-5.052,1.024-6.878,2.849
	L326.793,58.65l13.755,13.754l38.206-38.206c71.21,78.403,68.97,200.139-6.714,275.821c-37.777,37.778-88.005,58.583-141.431,58.583
	c-50.17,0-97.522-18.347-134.391-51.869l38.138-38.138l-13.755-13.754l-45.178,45.178c-3.798,3.798-3.798,9.957,0,13.754
	c39.15,39.15,90.49,61.677,145.46,64.059v76.281h19.452v-76.281c54.97-2.381,106.31-24.908,145.46-64.059
	C471.368,238.203,471.368,98.972,385.799,13.401z"/>
<path style="fill:#F7B239;" d="M333.936,502.274H127.289l0,0c0-21.074,17.084-38.16,38.16-38.16h130.328
	C316.85,464.115,333.936,481.198,333.936,502.274L333.936,502.274z"/>
<path style="fill:#E09B2D;" d="M213.869,464.115h-48.422c-21.074,0-38.16,17.084-38.16,38.16l0,0h48.422l0,0
	C175.711,481.198,192.795,464.115,213.869,464.115z"/>
<path style="fill:#F7B239;" d="M349.749,512H111.475c-5.373,0-9.726-4.355-9.726-9.726c0-5.371,4.353-9.726,9.726-9.726h238.273
	c5.373,0,9.726,4.355,9.726,9.726C359.475,507.645,355.121,512,349.749,512z"/>
<path style="fill:#E09B2D;" d="M155.878,502.274c0-5.371,4.353-9.726,9.726-9.726h-54.128c-5.373,0-9.726,4.355-9.726,9.726
	c0,5.371,4.353,9.726,9.726,9.726h54.128C160.231,512,155.878,507.645,155.878,502.274z"/>
<path style="fill:#CCCCCC;" d="M137.749,261.458c19.659,19.646,33.431,42.911,41.355,67.68
	c-24.769-7.91-48.059-21.695-67.706-41.342c-19.646-19.646-33.431-42.937-41.342-67.706
	C94.825,228.013,118.102,241.798,137.749,261.458z"/>
<path style="fill:#E6E6E6;" d="M391.493,118.123c-25.145-7.859-48.811-21.76-68.73-41.679C302.831,56.512,288.942,32.845,281.07,7.7
	c25.158,7.859,48.837,21.747,68.756,41.679C369.745,69.311,383.647,92.978,391.493,118.123z"/>
<path style="fill:#9AD14B;" d="M319.858,191.612c22.02-33.003,78.56-6.769,78.56-6.769c-3.605,37.568-19.815,74.177-48.591,102.953
	c-35.39,35.39-82.593,51.755-128.915,49.097v-0.013c7.431-67.459,43.935-60.898,65.942-68.237
	C308.861,261.302,297.851,224.629,319.858,191.612z"/>
<path style="fill:#90BC42;" d="M273.199,331.718c-17.092,4.461-34.754,6.186-52.287,5.174v-0.013
	c1.115-10.076,2.879-18.505,5.135-25.573C240.831,320.643,256.756,327.44,273.199,331.718z"/>
<path style="fill:#9AD14B;" d="M242.841,33.896c9.622,26.74-7.223,36.375-31.525,43.923c-24.276,7.534-37.944,32.77-31.473,57.357
	c2.127,8.092,2.321,16.742-1.193,25.262c-0.272,0.648-0.545,1.284-0.83,1.906c-17.403,38.061-75.331,22.357-71.765-19.335
	c1.05-12.255,4.176-25.884,11.399-38.58c7.483-13.175,11.23-28.205,9.765-43.287c-0.791-8.183-0.597-17.701,1.997-27.259
	c25.806-19.491,55.944-30.566,86.665-33.237C227.578,7.674,237.394,18.788,242.841,33.896z"/>
<path style="fill:#90BC42;" d="M215.893,0.659c-30.721,2.658-60.859,13.733-86.678,33.224v0.013
	c-2.594,9.557-2.788,19.063-1.997,27.246c1.465,15.082-2.282,30.112-9.765,43.287c-7.223,12.696-10.348,26.325-11.399,38.58
	c-2.295,26.792,20.827,42.859,42.25,40.797c-4.344-48.072,11.892-97.636,48.682-134.426c11.866-11.866,25.054-21.579,39.085-29.165
	L215.893,0.659z"/>
<g>
</g>
<g>
</g>
<g>
</g>
<g>
</g>
<g>
</g>
<g>
</g>
<g>
</g>
<g>
</g>
<g>
</g>
<g>
</g>
<g>
</g>
<g>
</g>
<g>
</g>
<g>
</g>
<g>
</g>
</svg>
