<svg id="svg" version="1.1" xmlns="http://www.w3.org/2000/svg" xmlns:xlink="http://www.w3.org/1999/xlink" width="400" height="400" viewBox="0, 0, 400,400"><g id="svgg"><path id="path0" d="M59.420 55.940 C 59.629 56.126,62.140 57.869,65.000 59.812 C 72.005 64.571,72.569 64.963,72.800 65.236 C 72.910 65.365,75.160 66.926,77.800 68.703 C 80.440 70.481,84.310 73.133,86.400 74.597 C 88.490 76.060,92.247 78.640,94.748 80.329 C 97.250 82.018,99.500 83.592,99.748 83.826 C 99.997 84.060,102.090 85.532,104.400 87.097 C 106.710 88.662,109.670 90.698,110.977 91.622 C 112.284 92.545,116.154 95.226,119.577 97.579 C 125.549 101.684,132.828 106.727,139.200 111.175 C 140.850 112.327,144.270 114.689,146.800 116.425 C 149.330 118.161,154.280 121.565,157.800 123.988 L 164.200 128.395 164.400 120.679 C 164.616 112.342,164.630 112.286,167.114 109.800 C 167.774 109.140,169.458 108.150,170.857 107.600 L 173.400 106.600 194.200 106.612 C 216.080 106.624,223.012 107.264,226.600 109.605 C 226.820 109.749,227.630 110.095,228.400 110.375 C 233.743 112.318,237.992 115.340,241.772 119.883 L 244.145 122.734 246.372 121.162 C 247.598 120.298,250.670 118.168,253.200 116.430 C 255.730 114.691,259.150 112.327,260.800 111.175 C 266.687 107.066,274.281 101.795,279.400 98.266 C 282.260 96.294,285.950 93.749,287.600 92.611 C 289.250 91.472,292.670 89.120,295.200 87.384 C 297.730 85.648,300.004 84.041,300.254 83.814 C 300.503 83.586,302.483 82.199,304.654 80.731 C 306.824 79.264,310.580 76.685,313.000 75.000 C 315.420 73.316,319.470 70.518,322.000 68.783 C 324.530 67.048,327.410 65.056,328.400 64.357 C 329.390 63.658,332.450 61.555,335.200 59.683 C 337.950 57.811,340.371 56.126,340.580 55.940 C 340.789 55.753,277.528 55.600,200.000 55.600 C 122.472 55.600,59.211 55.753,59.420 55.940 M37.200 170.760 L 37.200 265.951 46.700 259.362 C 51.925 255.739,57.010 252.203,58.000 251.504 C 58.990 250.806,61.240 249.245,63.000 248.036 C 67.441 244.984,73.375 240.883,79.880 236.370 C 82.916 234.264,89.000 230.048,93.400 227.001 C 97.800 223.955,103.740 219.841,106.600 217.860 C 109.460 215.879,113.375 213.176,115.300 211.855 C 121.294 207.738,121.534 207.800,99.553 207.800 L 81.403 207.800 80.295 211.800 C 79.686 214.000,78.632 217.870,77.953 220.400 C 77.274 222.930,76.578 225.450,76.406 226.000 C 76.234 226.550,75.852 227.799,75.557 228.776 C 74.515 232.234,71.017 234.400,66.475 234.400 C 63.548 234.400,58.991 233.242,55.864 231.703 C 50.428 229.027,47.832 224.108,49.528 219.694 C 49.759 219.092,50.491 216.800,51.155 214.600 C 51.819 212.400,53.829 205.830,55.622 200.000 C 57.415 194.170,59.027 188.860,59.204 188.200 C 59.654 186.522,60.723 183.003,61.574 180.400 C 61.969 179.190,62.521 177.390,62.800 176.400 C 63.079 175.410,63.618 173.610,63.998 172.400 C 64.378 171.190,65.101 168.850,65.604 167.200 C 66.107 165.550,66.784 163.390,67.107 162.400 C 67.430 161.410,67.839 160.060,68.014 159.400 C 68.190 158.740,68.690 157.030,69.126 155.600 C 69.562 154.170,70.844 149.940,71.975 146.200 C 73.106 142.460,74.182 138.950,74.367 138.400 C 74.552 137.850,75.110 136.050,75.607 134.400 C 76.104 132.750,76.824 130.410,77.207 129.200 C 77.589 127.990,78.300 125.650,78.786 124.000 C 79.272 122.350,80.014 119.998,80.435 118.773 C 80.856 117.549,81.200 116.332,81.200 116.069 C 81.200 115.061,83.001 111.826,84.268 110.559 L 85.593 109.234 81.696 106.550 C 79.553 105.074,76.090 102.667,74.000 101.202 C 71.910 99.736,67.230 96.491,63.600 93.990 C 59.970 91.489,54.930 88.007,52.400 86.252 C 49.870 84.498,45.640 81.578,43.000 79.765 C 40.360 77.951,37.975 76.265,37.700 76.018 C 37.300 75.658,37.200 94.634,37.200 170.760 M362.000 76.154 C 361.670 76.474,359.330 78.158,356.800 79.896 C 354.270 81.635,348.870 85.368,344.800 88.193 C 337.604 93.188,328.217 99.674,322.125 103.860 C 318.787 106.155,318.718 105.977,323.200 106.612 C 325.336 106.915,331.064 108.262,332.200 108.728 C 343.284 113.280,346.301 119.198,342.156 128.259 C 338.859 135.467,334.025 136.946,326.079 133.180 C 309.818 125.471,292.161 128.506,292.224 139.000 C 292.259 144.771,294.737 146.742,311.800 154.575 C 324.725 160.508,329.493 163.380,335.219 168.682 C 344.976 177.715,349.027 191.690,346.153 206.400 C 345.323 210.649,342.525 217.436,340.906 219.129 C 340.628 219.419,340.400 219.808,340.400 219.993 C 340.400 220.712,334.067 226.795,331.637 228.411 C 328.878 230.246,323.340 232.754,319.730 233.803 C 318.500 234.161,317.652 234.592,317.847 234.761 C 318.166 235.039,321.273 237.196,339.800 250.003 C 342.880 252.132,349.000 256.363,353.400 259.406 C 357.800 262.449,361.760 265.256,362.200 265.645 C 363.000 266.351,363.000 266.324,362.900 205.276 C 362.694 79.590,362.665 75.508,362.000 76.154 M192.267 130.667 C 192.120 130.813,192.000 134.728,192.001 139.367 L 192.001 147.800 192.959 148.400 C 193.485 148.730,195.285 149.950,196.958 151.112 L 200.000 153.224 203.047 151.112 C 204.724 149.950,206.485 148.730,206.962 148.400 C 207.439 148.070,210.702 145.839,214.214 143.441 C 217.726 141.044,220.758 138.942,220.951 138.771 C 221.901 137.925,217.624 133.292,214.704 132.003 C 211.705 130.680,193.347 129.586,192.267 130.667 M124.404 136.430 C 124.407 136.744,124.694 137.900,125.043 139.000 C 125.391 140.100,125.821 141.540,125.998 142.200 C 126.174 142.860,126.889 145.200,127.587 147.400 C 128.285 149.600,129.996 155.180,131.391 159.800 C 132.785 164.420,134.194 169.010,134.521 170.000 C 134.847 170.990,135.495 173.060,135.959 174.600 C 137.397 179.366,138.482 182.908,139.207 185.200 C 139.590 186.410,140.326 188.772,140.842 190.448 L 141.782 193.496 146.991 189.911 C 149.856 187.940,154.958 184.408,158.330 182.063 L 164.459 177.800 164.450 170.804 L 164.441 163.808 158.121 159.435 C 154.644 157.030,149.730 153.625,147.200 151.868 C 144.670 150.112,138.910 146.154,134.400 143.073 C 129.890 139.992,125.795 137.109,125.300 136.666 C 124.633 136.069,124.401 136.008,124.404 136.430 M99.253 141.753 C 98.993 142.386,98.613 143.651,98.408 144.563 C 98.204 145.475,97.117 149.546,95.992 153.610 C 93.112 164.020,92.835 165.032,91.941 168.400 C 91.503 170.050,90.990 171.940,90.800 172.600 C 90.610 173.260,90.070 175.240,89.600 177.000 C 89.130 178.760,88.559 180.830,88.331 181.600 C 88.104 182.370,87.828 183.675,87.717 184.500 L 87.516 186.000 99.600 186.000 L 111.684 186.000 111.483 184.500 C 111.372 183.675,111.073 182.280,110.818 181.400 C 110.563 180.520,110.197 179.260,110.005 178.600 C 109.813 177.940,109.294 176.050,108.851 174.400 C 108.409 172.750,107.923 170.950,107.770 170.400 C 106.545 165.989,100.048 142.029,99.906 141.400 C 99.748 140.699,99.667 140.743,99.253 141.753 M260.394 146.612 C 258.307 148.052,255.209 150.168,253.509 151.315 L 250.418 153.400 250.420 170.800 L 250.421 188.200 255.511 191.686 C 258.310 193.603,262.130 196.251,264.000 197.570 C 267.268 199.874,268.508 200.395,268.966 199.655 C 269.529 198.745,272.865 198.266,274.944 198.797 C 277.480 199.445,277.669 199.551,282.381 202.978 C 291.512 209.619,294.948 210.945,303.000 210.933 C 314.600 210.916,321.052 205.743,319.190 197.951 C 317.739 191.878,314.865 189.613,298.132 181.362 C 288.623 176.673,281.027 172.508,280.400 171.639 C 280.290 171.486,279.570 170.928,278.800 170.399 C 273.287 166.610,267.651 158.859,266.006 152.800 C 265.737 151.810,265.355 150.587,265.158 150.081 C 264.961 149.576,264.787 148.316,264.772 147.281 C 264.718 143.708,264.625 143.693,260.394 146.612 M195.691 191.300 L 192.016 193.800 192.108 202.000 L 192.200 210.200 199.193 210.310 C 212.548 210.520,216.618 209.311,220.388 204.017 L 221.132 202.972 215.466 199.102 C 212.350 196.974,207.730 193.788,205.200 192.023 C 199.678 188.169,200.231 188.211,195.691 191.300 M162.800 214.061 C 162.250 214.518,159.383 216.548,156.428 218.571 C 150.641 222.534,150.632 222.543,149.984 225.136 C 149.425 227.370,146.887 229.941,143.602 231.599 C 141.111 232.856,135.043 234.597,134.443 234.227 C 134.264 234.116,132.336 235.247,130.159 236.739 C 121.018 243.003,110.891 250.006,109.400 251.093 C 107.898 252.188,100.649 257.219,89.946 264.593 C 87.386 266.357,82.076 270.018,78.146 272.729 C 74.215 275.439,68.434 279.425,65.299 281.585 C 61.318 284.328,59.788 285.587,60.231 285.757 C 61.327 286.177,339.529 286.038,339.790 285.617 C 339.920 285.406,337.906 283.799,335.313 282.046 C 332.721 280.293,329.530 278.103,328.223 277.179 C 326.916 276.255,323.046 273.575,319.623 271.222 C 313.616 267.094,306.616 262.244,301.200 258.457 C 299.770 257.458,296.170 254.967,293.200 252.921 C 284.449 246.895,280.477 244.150,275.600 240.755 C 273.070 238.994,269.132 236.259,266.850 234.677 C 264.567 233.094,262.311 231.530,261.835 231.200 C 261.360 230.870,258.098 228.631,254.586 226.225 C 251.074 223.819,247.263 221.164,246.117 220.325 C 243.625 218.500,243.554 218.492,242.706 219.928 C 238.576 226.919,226.825 232.593,213.590 233.987 C 207.768 234.600,175.962 234.493,172.968 233.850 C 165.943 232.341,164.425 229.796,164.410 219.500 C 164.399 212.847,164.372 212.753,162.800 214.061 " stroke="none" fill="#fa447c" fill-rule="evenodd"></path><path id="path1" d="M48.956 56.189 C 42.738 57.711,38.401 62.544,37.252 69.233 C 36.548 73.332,36.655 75.319,37.616 76.012 C 38.065 76.335,40.720 78.181,43.516 80.113 C 46.312 82.044,50.940 85.247,53.800 87.230 C 65.681 95.465,74.730 101.709,83.600 107.790 C 97.393 117.246,115.958 130.104,121.000 133.692 C 123.420 135.415,128.910 139.238,133.200 142.189 C 137.490 145.139,143.700 149.438,147.000 151.741 C 150.300 154.044,156.960 158.641,161.800 161.957 C 171.034 168.283,174.094 170.399,174.361 170.642 C 174.621 170.879,172.765 172.227,162.815 179.022 C 157.637 182.559,150.610 187.405,147.200 189.792 C 143.790 192.179,139.200 195.391,137.000 196.931 C 132.015 200.419,122.912 206.689,116.600 210.983 C 113.960 212.778,109.460 215.871,106.600 217.855 C 103.740 219.839,97.890 223.892,93.600 226.861 C 83.406 233.918,76.269 238.866,71.713 242.035 C 69.685 243.446,66.296 245.770,64.182 247.200 C 62.069 248.630,59.588 250.355,58.670 251.033 C 57.751 251.711,52.860 255.112,47.800 258.591 C 35.353 267.148,36.169 266.082,37.255 272.367 C 38.824 281.440,44.987 285.987,55.734 285.997 L 58.868 286.000 64.734 281.975 C 67.960 279.761,73.840 275.706,77.800 272.965 C 81.760 270.224,86.800 266.749,89.000 265.243 C 93.458 262.192,105.908 253.552,109.000 251.364 C 110.100 250.586,114.510 247.521,118.800 244.554 C 128.938 237.542,133.694 234.237,138.600 230.796 C 140.800 229.252,145.120 226.275,148.200 224.178 C 154.580 219.836,161.014 215.382,166.372 211.600 C 170.615 208.604,181.792 200.865,192.200 193.715 C 200.583 187.957,199.563 188.070,205.528 192.237 C 208.018 193.977,213.998 198.100,218.817 201.400 C 229.398 208.647,238.452 214.907,242.086 217.491 C 243.564 218.541,248.416 221.920,252.869 225.000 C 263.026 232.025,261.964 231.290,266.850 234.677 C 269.132 236.259,273.070 238.994,275.600 240.755 C 280.477 244.150,284.449 246.895,293.200 252.921 C 296.170 254.967,299.770 257.458,301.200 258.457 C 306.728 262.322,313.638 267.109,319.200 270.929 C 322.390 273.120,326.170 275.735,327.600 276.740 C 329.030 277.745,332.630 280.235,335.600 282.274 L 341.000 285.980 344.200 285.987 C 356.473 286.013,363.200 279.765,363.200 268.337 C 363.200 266.109,363.538 266.417,353.400 259.406 C 349.000 256.363,342.880 252.130,339.800 249.999 C 328.668 242.298,317.666 234.712,311.000 230.141 C 307.260 227.577,301.708 223.751,298.662 221.640 C 295.617 219.528,292.734 217.530,292.256 217.200 C 291.779 216.870,288.262 214.440,284.442 211.800 C 276.691 206.445,270.974 202.465,264.618 198.000 C 262.268 196.350,255.993 192.024,250.673 188.387 C 237.999 179.723,227.643 172.548,226.418 171.582 C 225.214 170.633,223.874 171.759,237.349 162.400 C 237.824 162.070,242.350 158.968,247.406 155.506 C 252.463 152.044,258.339 147.994,260.464 146.506 C 265.436 143.025,278.379 134.027,284.800 129.589 C 287.550 127.688,293.220 123.762,297.400 120.863 C 308.531 113.144,315.609 108.268,320.800 104.742 C 326.261 101.033,333.286 96.190,344.200 88.610 C 348.600 85.554,354.195 81.678,356.633 79.996 C 363.739 75.095,363.173 75.661,363.187 73.433 C 363.260 62.078,356.660 55.659,344.866 55.614 L 341.132 55.600 335.466 59.478 C 332.350 61.611,329.080 63.867,328.200 64.492 C 327.320 65.117,324.530 67.048,322.000 68.783 C 319.470 70.518,315.420 73.316,313.000 75.000 C 310.580 76.685,306.824 79.264,304.654 80.731 C 302.483 82.199,300.503 83.586,300.254 83.814 C 300.004 84.041,297.730 85.648,295.200 87.384 C 292.670 89.120,289.250 91.472,287.600 92.611 C 285.950 93.749,282.260 96.294,279.400 98.266 C 274.281 101.795,266.687 107.066,260.800 111.175 C 259.150 112.327,255.730 114.690,253.200 116.426 C 250.670 118.162,246.980 120.726,245.000 122.123 C 239.788 125.800,226.670 134.873,217.200 141.350 C 212.690 144.435,208.280 147.468,207.400 148.091 C 206.520 148.715,204.495 150.124,202.900 151.224 L 200.000 153.224 196.916 151.112 C 183.728 142.079,177.365 137.688,169.802 132.400 C 160.748 126.069,151.655 119.754,146.800 116.424 C 144.270 114.689,140.850 112.327,139.200 111.175 C 132.828 106.727,125.549 101.684,119.577 97.579 C 116.154 95.226,112.284 92.545,110.977 91.622 C 109.670 90.698,106.710 88.662,104.400 87.097 C 102.090 85.532,99.997 84.060,99.748 83.826 C 99.500 83.592,97.250 82.018,94.748 80.329 C 92.247 78.640,88.490 76.060,86.400 74.597 C 84.310 73.133,80.440 70.481,77.800 68.703 C 75.160 66.926,72.910 65.365,72.800 65.236 C 72.570 64.965,72.182 64.694,64.534 59.470 L 58.868 55.600 54.934 55.644 C 52.770 55.669,50.080 55.914,48.956 56.189 " stroke="none" fill="#fbdb74" fill-rule="evenodd"></path><path id="path2" d="M179.202 0.275 C 177.333 0.363,175.632 0.608,175.422 0.818 C 175.212 1.028,173.726 1.200,172.120 1.200 C 170.440 1.200,169.200 1.370,169.200 1.600 C 169.200 1.822,168.133 2.000,166.800 2.000 C 165.467 2.000,164.400 2.178,164.400 2.400 C 164.400 2.620,163.410 2.800,162.200 2.800 C 160.990 2.800,160.000 2.980,160.000 3.200 C 160.000 3.420,159.295 3.600,158.433 3.600 C 157.572 3.600,156.807 3.770,156.733 3.979 C 156.660 4.187,155.755 4.400,154.722 4.452 C 153.689 4.504,152.935 4.694,153.045 4.874 C 153.156 5.053,152.527 5.200,151.647 5.200 C 150.767 5.200,149.936 5.380,149.800 5.600 C 149.664 5.820,148.933 6.000,148.176 6.000 C 147.419 6.000,146.800 6.180,146.800 6.400 C 146.800 6.620,146.159 6.800,145.376 6.800 C 144.529 6.800,144.053 6.962,144.200 7.200 C 144.349 7.442,143.804 7.600,142.824 7.600 C 141.931 7.600,141.200 7.760,141.200 7.956 C 141.200 8.152,140.615 8.402,139.900 8.512 C 138.246 8.765,137.417 8.989,135.250 9.770 C 134.287 10.116,133.162 10.400,132.750 10.400 C 132.337 10.400,132.000 10.580,132.000 10.800 C 132.000 11.020,131.550 11.200,131.000 11.200 C 130.450 11.200,130.000 11.380,130.000 11.600 C 130.000 11.820,129.550 12.000,129.000 12.000 C 128.450 12.000,128.000 12.180,128.000 12.400 C 128.000 12.620,127.550 12.800,127.000 12.800 C 126.450 12.800,126.000 12.980,126.000 13.200 C 126.000 13.420,125.550 13.600,125.000 13.600 C 124.450 13.600,124.000 13.780,124.000 14.000 C 124.000 14.220,123.539 14.400,122.976 14.400 C 122.396 14.400,122.060 14.573,122.200 14.800 C 122.344 15.033,121.937 15.200,121.224 15.200 C 120.551 15.200,120.000 15.380,120.000 15.600 C 120.000 15.820,119.640 16.000,119.200 16.000 C 118.760 16.000,118.400 16.180,118.400 16.400 C 118.400 16.620,118.040 16.800,117.600 16.800 C 117.160 16.800,116.800 16.980,116.800 17.200 C 116.800 17.420,116.365 17.600,115.833 17.600 C 115.302 17.600,114.807 17.735,114.733 17.900 C 114.558 18.294,107.937 21.607,107.333 21.603 C 107.077 21.601,106.807 21.735,106.733 21.900 C 106.566 22.276,104.436 23.575,103.500 23.871 C 103.115 23.993,102.800 24.252,102.800 24.447 C 102.800 24.641,102.590 24.800,102.334 24.800 C 101.588 24.800,98.800 26.123,98.800 26.477 C 98.800 26.655,98.440 26.800,98.000 26.800 C 97.560 26.800,97.200 26.935,97.200 27.101 C 97.200 27.266,96.390 27.831,95.400 28.356 C 94.410 28.881,93.600 29.466,93.600 29.656 C 93.600 29.845,93.280 30.000,92.888 30.000 C 92.497 30.000,91.917 30.360,91.600 30.800 C 91.283 31.240,90.743 31.600,90.400 31.600 C 90.057 31.600,89.517 31.960,89.200 32.400 C 88.883 32.840,88.343 33.200,88.000 33.200 C 87.657 33.200,87.117 33.560,86.800 34.000 C 86.483 34.440,85.943 34.800,85.600 34.800 C 85.257 34.800,84.717 35.160,84.400 35.600 C 84.083 36.040,83.593 36.400,83.312 36.400 C 83.030 36.400,82.800 36.580,82.800 36.800 C 82.800 37.020,82.607 37.200,82.371 37.200 C 81.480 37.200,80.617 38.439,81.235 38.830 C 81.987 39.306,318.013 39.306,318.765 38.830 C 319.383 38.439,318.520 37.200,317.629 37.200 C 317.393 37.200,317.200 37.020,317.200 36.800 C 317.200 36.580,316.970 36.400,316.688 36.400 C 316.407 36.400,315.917 36.040,315.600 35.600 C 315.283 35.160,314.703 34.800,314.312 34.800 C 313.920 34.800,313.600 34.650,313.600 34.468 C 313.600 34.285,313.105 33.881,312.500 33.570 C 311.895 33.260,311.109 32.689,310.753 32.303 C 310.397 31.916,309.878 31.600,309.600 31.600 C 309.322 31.600,308.803 31.271,308.447 30.870 C 308.091 30.468,307.215 29.884,306.500 29.572 C 305.785 29.260,305.200 28.890,305.200 28.751 C 305.200 28.611,304.660 28.273,304.000 28.000 C 303.340 27.727,302.800 27.345,302.800 27.151 C 302.800 26.958,302.440 26.800,302.000 26.800 C 301.560 26.800,301.200 26.590,301.200 26.333 C 301.200 26.077,301.085 25.981,300.945 26.122 C 300.805 26.262,300.192 26.022,299.583 25.588 C 298.975 25.155,298.189 24.800,297.838 24.800 C 297.487 24.800,297.200 24.620,297.200 24.400 C 297.200 24.180,296.880 24.000,296.488 24.000 C 296.097 24.000,295.517 23.640,295.200 23.200 C 294.883 22.760,294.429 22.400,294.191 22.400 C 293.525 22.400,291.607 21.437,291.603 21.100 C 291.601 20.935,291.328 20.800,290.995 20.800 C 290.439 20.800,288.878 20.078,288.400 19.600 C 287.853 19.053,284.629 17.600,283.962 17.600 C 283.543 17.600,283.200 17.420,283.200 17.200 C 283.200 16.980,282.964 16.800,282.675 16.800 C 282.386 16.800,281.405 16.440,280.494 16.000 C 279.584 15.560,278.549 15.200,278.196 15.200 C 277.842 15.200,277.664 15.020,277.800 14.800 C 277.939 14.574,277.615 14.400,277.057 14.400 C 276.512 14.400,276.007 14.265,275.933 14.100 C 275.791 13.781,272.404 12.438,270.900 12.106 C 270.405 11.996,270.000 11.748,270.000 11.553 C 270.000 11.359,269.728 11.200,269.395 11.200 C 269.062 11.200,268.477 11.040,268.095 10.843 C 267.713 10.647,266.320 10.165,265.000 9.771 C 261.722 8.794,261.578 8.757,260.100 8.520 C 259.385 8.406,258.800 8.152,258.800 7.956 C 258.800 7.760,258.170 7.600,257.400 7.600 C 256.630 7.600,256.000 7.420,256.000 7.200 C 256.000 6.980,255.370 6.800,254.600 6.800 C 253.830 6.800,253.200 6.620,253.200 6.400 C 253.200 6.180,252.581 6.000,251.824 6.000 C 251.067 6.000,250.336 5.820,250.200 5.600 C 250.064 5.380,249.254 5.200,248.400 5.200 C 247.546 5.200,246.736 5.020,246.600 4.800 C 246.464 4.580,245.643 4.400,244.776 4.400 C 243.909 4.400,243.200 4.220,243.200 4.000 C 243.200 3.780,242.480 3.600,241.600 3.600 C 240.720 3.600,240.000 3.420,240.000 3.200 C 240.000 2.977,238.925 2.800,237.576 2.800 C 236.063 2.800,235.246 2.650,235.400 2.400 C 235.554 2.150,234.737 2.000,233.224 2.000 C 231.875 2.000,230.800 1.823,230.800 1.600 C 230.800 1.369,229.544 1.200,227.833 1.200 C 225.867 1.200,224.812 1.037,224.705 0.716 C 224.545 0.235,187.621 -0.123,179.202 0.275 M19.200 112.767 C 19.200 113.225,19.020 113.600,18.800 113.600 C 18.580 113.600,18.400 113.960,18.400 114.400 C 18.400 114.840,18.220 115.200,18.000 115.200 C 17.780 115.200,17.600 115.560,17.600 116.000 C 17.600 116.440,17.420 116.800,17.200 116.800 C 16.980 116.800,16.800 117.160,16.800 117.600 C 16.800 118.040,16.620 118.400,16.400 118.400 C 16.180 118.400,16.000 118.749,16.000 119.176 C 16.000 119.603,15.820 120.064,15.600 120.200 C 15.380 120.336,15.200 120.887,15.200 121.424 C 15.200 121.961,15.020 122.400,14.800 122.400 C 14.580 122.400,14.400 122.760,14.400 123.200 C 14.400 123.640,14.220 124.000,14.000 124.000 C 13.780 124.000,13.600 124.439,13.600 124.976 C 13.600 125.513,13.420 126.064,13.200 126.200 C 12.980 126.336,12.800 126.715,12.800 127.043 C 12.800 127.371,12.440 128.384,12.000 129.294 C 11.560 130.205,11.200 131.169,11.200 131.437 C 11.200 131.705,10.864 132.616,10.452 133.462 C 9.429 135.566,8.888 137.416,8.568 139.900 C 8.419 141.055,8.140 142.000,7.948 142.000 C 7.757 142.000,7.600 142.540,7.600 143.200 C 7.600 143.860,7.420 144.400,7.200 144.400 C 6.980 144.400,6.800 145.030,6.800 145.800 C 6.800 146.570,6.620 147.200,6.400 147.200 C 6.180 147.200,6.000 147.740,6.000 148.400 C 6.000 149.060,5.820 149.600,5.600 149.600 C 5.380 149.600,5.200 150.500,5.200 151.600 C 5.200 152.700,5.020 153.600,4.800 153.600 C 4.580 153.600,4.400 154.410,4.400 155.400 C 4.400 156.390,4.220 157.200,4.000 157.200 C 3.780 157.200,3.600 158.010,3.600 159.000 C 3.600 159.990,3.420 160.800,3.200 160.800 C 2.980 160.800,2.800 161.599,2.800 162.576 C 2.800 163.553,2.620 164.464,2.400 164.600 C 2.180 164.736,2.000 165.906,2.000 167.200 C 2.000 168.494,1.820 169.664,1.600 169.800 C 1.380 169.936,1.200 171.261,1.200 172.744 C 1.200 174.367,1.001 175.639,0.700 175.940 C -0.030 176.671,-0.030 224.457,0.700 224.700 C 1.040 224.813,1.200 225.816,1.200 227.833 C 1.200 229.544,1.369 230.800,1.600 230.800 C 1.822 230.800,2.000 231.867,2.000 233.200 C 2.000 234.533,2.178 235.600,2.400 235.600 C 2.620 235.600,2.800 236.489,2.800 237.576 C 2.800 238.663,2.980 239.664,3.200 239.800 C 3.420 239.936,3.600 240.757,3.600 241.624 C 3.600 242.491,3.780 243.200,4.000 243.200 C 4.220 243.200,4.400 243.999,4.400 244.976 C 4.400 245.953,4.580 246.864,4.800 247.000 C 5.020 247.136,5.200 247.967,5.200 248.847 C 5.200 249.812,5.359 250.349,5.600 250.200 C 5.841 250.051,6.000 250.588,6.000 251.553 C 6.000 252.433,6.180 253.264,6.400 253.400 C 6.620 253.536,6.800 254.076,6.800 254.600 C 6.800 255.124,6.980 255.664,7.200 255.800 C 7.420 255.936,7.600 256.566,7.600 257.200 C 7.600 257.834,7.780 258.464,8.000 258.600 C 8.220 258.736,8.400 259.366,8.400 260.000 C 8.400 260.634,8.585 261.267,8.811 261.407 C 9.036 261.546,9.182 261.872,9.135 262.130 C 9.005 262.839,10.531 267.600,10.889 267.600 C 11.060 267.600,11.200 268.140,11.200 268.800 C 11.200 269.460,11.380 270.000,11.600 270.000 C 11.820 270.000,12.000 270.326,12.000 270.725 C 12.000 271.124,12.360 272.195,12.800 273.106 C 13.240 274.016,13.600 275.040,13.600 275.381 C 13.600 275.721,13.747 276.000,13.928 276.000 C 14.108 276.000,14.500 276.900,14.800 278.000 C 15.100 279.100,15.492 280.000,15.672 280.000 C 15.853 280.000,16.000 280.360,16.000 280.800 C 16.000 281.240,16.180 281.600,16.400 281.600 C 16.620 281.600,16.800 281.960,16.800 282.400 C 16.800 282.840,16.980 283.200,17.200 283.200 C 17.420 283.200,17.600 283.560,17.600 284.000 C 17.600 284.440,17.780 284.800,18.000 284.800 C 18.220 284.800,18.400 285.160,18.400 285.600 C 18.400 286.040,18.580 286.400,18.800 286.400 C 19.020 286.400,19.200 286.749,19.200 287.176 C 19.200 288.324,19.942 288.577,20.198 287.516 C 20.705 285.412,20.214 112.271,19.700 112.100 C 19.407 112.002,19.200 112.278,19.200 112.767 M379.867 112.267 C 379.534 112.599,379.510 286.899,379.842 287.765 C 380.154 288.579,380.800 288.182,380.800 287.176 C 380.800 286.749,380.980 286.400,381.200 286.400 C 381.420 286.400,381.600 286.040,381.600 285.600 C 381.600 285.160,381.780 284.800,382.000 284.800 C 382.220 284.800,382.400 284.440,382.400 284.000 C 382.400 283.560,382.580 283.200,382.800 283.200 C 383.020 283.200,383.200 282.840,383.200 282.400 C 383.200 281.960,383.380 281.600,383.600 281.600 C 383.820 281.600,384.000 281.364,384.000 281.075 C 384.000 280.786,384.360 279.805,384.800 278.894 C 385.240 277.984,385.600 276.960,385.600 276.619 C 385.600 276.279,385.780 276.000,386.000 276.000 C 386.220 276.000,386.400 275.728,386.400 275.395 C 386.400 275.062,386.580 274.432,386.800 273.995 C 387.020 273.558,387.380 272.842,387.600 272.405 C 387.820 271.968,388.000 271.248,388.000 270.805 C 388.000 270.362,388.180 270.000,388.400 270.000 C 388.620 270.000,388.800 269.475,388.800 268.833 C 388.800 268.192,388.941 267.607,389.113 267.533 C 389.547 267.349,391.600 260.960,391.600 259.796 C 391.600 259.274,391.780 258.736,392.000 258.600 C 392.220 258.464,392.400 257.723,392.400 256.953 C 392.400 256.121,392.562 255.653,392.800 255.800 C 393.033 255.944,393.200 255.545,393.200 254.847 C 393.200 254.187,393.380 253.536,393.600 253.400 C 393.820 253.264,394.000 252.533,394.000 251.776 C 394.000 251.019,394.180 250.400,394.400 250.400 C 394.620 250.400,394.800 249.601,394.800 248.624 C 394.800 247.647,394.980 246.736,395.200 246.600 C 395.420 246.464,395.600 245.643,395.600 244.776 C 395.600 243.909,395.780 243.200,396.000 243.200 C 396.220 243.200,396.400 242.491,396.400 241.624 C 396.400 240.757,396.580 239.936,396.800 239.800 C 397.020 239.664,397.200 238.663,397.200 237.576 C 397.200 236.489,397.380 235.600,397.600 235.600 C 397.822 235.600,398.000 234.533,398.000 233.200 C 398.000 231.867,398.178 230.800,398.400 230.800 C 398.631 230.800,398.800 229.544,398.800 227.833 C 398.800 225.816,398.960 224.813,399.300 224.700 C 399.693 224.569,399.800 219.369,399.800 200.487 C 399.800 181.783,399.689 176.329,399.300 175.940 C 398.999 175.639,398.800 174.367,398.800 172.744 C 398.800 171.261,398.620 169.936,398.400 169.800 C 398.180 169.664,398.000 168.393,398.000 166.976 C 398.000 165.525,397.825 164.400,397.600 164.400 C 397.380 164.400,397.200 163.691,397.200 162.824 C 397.200 161.957,397.020 161.136,396.800 161.000 C 396.580 160.864,396.400 159.964,396.400 159.000 C 396.400 158.036,396.220 157.136,396.000 157.000 C 395.780 156.864,395.600 156.043,395.600 155.176 C 395.600 154.309,395.420 153.600,395.200 153.600 C 394.980 153.600,394.800 152.801,394.800 151.824 C 394.800 150.847,394.620 149.936,394.400 149.800 C 394.180 149.664,394.000 149.023,394.000 148.376 C 394.000 147.729,393.820 147.200,393.600 147.200 C 393.380 147.200,393.200 146.570,393.200 145.800 C 393.200 145.030,393.020 144.400,392.800 144.400 C 392.580 144.400,392.400 143.860,392.400 143.200 C 392.400 142.540,392.241 142.000,392.046 142.000 C 391.851 142.000,391.565 140.981,391.409 139.736 C 391.254 138.490,390.975 137.185,390.790 136.836 C 390.605 136.486,390.222 135.345,389.939 134.300 C 389.657 133.255,389.285 132.400,389.113 132.400 C 388.941 132.400,388.800 132.074,388.800 131.675 C 388.800 131.276,388.440 130.205,388.000 129.294 C 387.560 128.384,387.200 127.371,387.200 127.043 C 387.200 126.715,387.020 126.336,386.800 126.200 C 386.580 126.064,386.400 125.513,386.400 124.976 C 386.400 124.439,386.220 124.000,386.000 124.000 C 385.780 124.000,385.600 123.640,385.600 123.200 C 385.600 122.760,385.420 122.400,385.200 122.400 C 384.980 122.400,384.800 121.860,384.800 121.200 C 384.800 120.540,384.620 120.000,384.400 120.000 C 384.180 120.000,384.000 119.640,384.000 119.200 C 384.000 118.760,383.820 118.400,383.600 118.400 C 383.380 118.400,383.200 118.040,383.200 117.600 C 383.200 117.160,383.020 116.800,382.800 116.800 C 382.580 116.800,382.400 116.440,382.400 116.000 C 382.400 115.560,382.220 115.200,382.000 115.200 C 381.780 115.200,381.600 114.840,381.600 114.400 C 381.600 113.960,381.420 113.600,381.200 113.600 C 380.980 113.600,380.800 113.240,380.800 112.800 C 380.800 112.003,380.374 111.760,379.867 112.267 M21.600 292.800 C 21.600 293.020,21.780 293.200,22.000 293.200 C 22.220 293.200,22.400 293.560,22.400 294.000 C 22.400 294.440,22.580 294.800,22.800 294.800 C 23.357 294.800,23.277 293.935,22.643 293.100 C 22.052 292.321,21.600 292.191,21.600 292.800 M376.800 293.967 C 376.800 294.388,376.575 294.814,376.300 294.912 C 376.025 295.010,375.937 295.237,376.104 295.416 C 376.444 295.779,377.567 294.479,377.587 293.700 C 377.594 293.425,377.420 293.200,377.200 293.200 C 376.980 293.200,376.800 293.545,376.800 293.967 M35.293 315.200 C 35.762 315.951,36.400 316.280,36.400 315.771 C 36.400 315.473,35.325 314.400,35.025 314.400 C 34.898 314.400,35.018 314.760,35.293 315.200 M364.100 314.998 C 363.531 315.645,363.461 316.000,363.904 316.000 C 364.071 316.000,364.432 315.640,364.707 315.200 C 365.278 314.287,364.851 314.145,364.100 314.998 M36.400 316.829 C 36.400 317.468,37.595 318.541,37.919 318.193 C 38.074 318.027,37.975 317.810,37.700 317.712 C 37.425 317.614,37.200 317.278,37.200 316.967 C 37.200 316.655,37.020 316.400,36.800 316.400 C 36.580 316.400,36.400 316.593,36.400 316.829 M42.400 324.757 C 42.400 324.954,42.685 325.224,43.033 325.357 C 44.011 325.733,44.141 325.651,43.600 325.000 C 43.048 324.335,42.400 324.204,42.400 324.757 M355.089 327.205 C 354.326 328.096,354.184 328.581,354.798 328.201 C 355.190 327.959,356.146 326.400,355.903 326.400 C 355.834 326.400,355.468 326.762,355.089 327.205 M45.079 327.854 C 44.947 327.987,45.108 328.365,45.438 328.695 C 46.215 329.472,46.484 329.203,45.828 328.306 C 45.549 327.924,45.212 327.721,45.079 327.854 M48.000 331.198 C 48.000 331.419,48.150 331.600,48.332 331.600 C 48.515 331.600,48.920 332.095,49.232 332.700 C 49.545 333.305,51.600 335.554,53.800 337.699 C 56.000 339.843,57.980 341.786,58.200 342.017 C 61.893 345.886,65.813 349.695,66.866 350.438 C 67.600 350.955,69.043 352.238,70.074 353.289 C 71.105 354.340,72.106 355.200,72.299 355.200 C 72.491 355.200,72.998 355.520,73.425 355.912 C 73.851 356.304,74.920 357.154,75.800 357.802 C 76.680 358.450,77.897 359.480,78.503 360.090 C 79.110 360.701,79.836 361.200,80.115 361.200 C 80.395 361.200,80.883 361.560,81.200 362.000 C 81.517 362.440,82.009 362.800,82.292 362.800 C 82.575 362.800,83.372 363.340,84.063 364.000 C 84.754 364.660,85.562 365.200,85.859 365.200 C 86.157 365.200,86.400 365.350,86.400 365.532 C 86.400 365.715,86.895 366.119,87.500 366.430 C 88.105 366.740,88.891 367.311,89.247 367.697 C 89.603 368.084,90.122 368.400,90.400 368.400 C 90.678 368.400,91.197 368.716,91.553 369.103 C 91.909 369.489,92.740 370.074,93.400 370.403 C 94.060 370.731,94.949 371.315,95.375 371.700 C 95.802 372.085,96.348 372.400,96.589 372.400 C 96.830 372.400,98.005 373.030,99.200 373.800 C 100.395 374.570,101.694 375.200,102.087 375.200 C 102.479 375.200,102.800 375.380,102.800 375.600 C 102.800 375.820,103.160 376.000,103.600 376.000 C 104.040 376.000,104.400 376.180,104.400 376.400 C 104.400 376.620,104.678 376.800,105.017 376.800 C 105.356 376.800,106.020 377.160,106.492 377.600 C 108.110 379.107,108.783 378.342,108.795 374.984 C 108.811 370.085,111.662 363.866,115.714 359.888 C 118.553 357.101,123.649 354.000,125.388 354.000 C 125.754 354.000,126.422 353.802,126.873 353.561 C 127.343 353.309,131.304 353.010,136.147 352.861 L 144.600 352.600 144.600 341.800 L 144.600 331.000 96.300 330.898 C 64.170 330.831,48.000 330.931,48.000 331.198 M255.395 331.700 C 255.274 332.195,255.226 337.100,255.287 342.600 L 255.400 352.600 263.853 352.861 C 268.696 353.010,272.657 353.309,273.127 353.561 C 273.578 353.802,274.249 354.000,274.618 354.000 C 277.698 354.000,285.725 360.261,288.091 364.510 C 290.065 368.054,291.514 373.521,291.588 377.700 C 291.604 378.631,292.449 378.587,293.508 377.600 C 293.980 377.160,294.644 376.800,294.983 376.800 C 295.322 376.800,295.600 376.620,295.600 376.400 C 295.600 376.180,295.960 376.000,296.400 376.000 C 296.840 376.000,297.200 375.820,297.200 375.600 C 297.200 375.380,297.479 375.200,297.820 375.200 C 298.441 375.200,300.824 374.103,301.200 373.644 C 301.310 373.510,301.805 373.175,302.300 372.900 C 302.795 372.625,303.605 372.175,304.100 371.900 C 304.595 371.625,305.090 371.310,305.200 371.199 C 305.310 371.089,305.940 370.730,306.600 370.402 C 307.260 370.074,308.091 369.489,308.447 369.103 C 308.803 368.716,309.348 368.400,309.659 368.400 C 309.969 368.400,310.483 368.040,310.800 367.600 C 311.117 367.160,311.625 366.800,311.928 366.800 C 312.231 366.800,312.983 366.260,313.600 365.600 C 314.217 364.940,314.943 364.400,315.214 364.400 C 315.484 364.400,315.997 364.084,316.353 363.697 C 316.709 363.311,317.495 362.740,318.100 362.430 C 318.705 362.119,319.200 361.715,319.200 361.532 C 319.200 361.350,319.425 361.196,319.700 361.191 C 319.975 361.186,320.895 360.556,321.744 359.791 C 322.593 359.026,323.403 358.395,323.544 358.389 C 323.685 358.382,324.603 357.662,325.586 356.789 C 326.568 355.915,327.524 355.200,327.711 355.200 C 327.899 355.200,328.895 354.340,329.926 353.289 C 330.957 352.238,332.400 350.955,333.134 350.438 C 334.187 349.695,338.107 345.886,341.800 342.017 C 342.020 341.786,344.000 339.843,346.200 337.699 C 348.400 335.554,350.455 333.305,350.768 332.700 C 351.080 332.095,351.485 331.600,351.668 331.600 C 351.850 331.600,352.000 331.420,352.000 331.200 C 352.000 330.936,335.669 330.800,303.808 330.800 L 255.615 330.800 255.395 331.700 M146.600 393.600 C 146.736 393.820,147.107 394.000,147.424 394.000 C 147.741 394.000,148.000 393.820,148.000 393.600 C 148.000 393.380,147.629 393.200,147.176 393.200 C 146.723 393.200,146.464 393.380,146.600 393.600 M160.000 396.800 C 160.000 397.020,160.360 397.200,160.800 397.200 C 161.240 397.200,161.600 397.020,161.600 396.800 C 161.600 396.580,161.240 396.400,160.800 396.400 C 160.360 396.400,160.000 396.580,160.000 396.800 M238.600 396.800 C 238.736 397.020,239.107 397.200,239.424 397.200 C 239.741 397.200,240.000 397.020,240.000 396.800 C 240.000 396.580,239.629 396.400,239.176 396.400 C 238.723 396.400,238.464 396.580,238.600 396.800 " stroke="none" fill="#248cd3" fill-rule="evenodd"></path><path id="path3" d="M46.538 39.300 C 46.436 39.465,45.744 39.600,45.000 39.600 C 44.256 39.600,43.536 39.780,43.400 40.000 C 43.264 40.220,42.533 40.400,41.776 40.400 C 41.019 40.400,40.400 40.580,40.400 40.800 C 40.400 41.020,40.160 41.200,39.866 41.200 C 38.866 41.200,33.476 44.048,32.436 45.126 C 31.866 45.717,30.949 46.432,30.397 46.716 C 29.845 46.999,28.948 47.899,28.402 48.716 C 27.857 49.532,27.125 50.470,26.776 50.800 C 26.206 51.339,25.663 52.261,24.248 55.097 C 24.001 55.590,23.665 55.995,23.500 55.997 C 23.335 55.999,23.200 56.360,23.200 56.800 C 23.200 57.240,23.020 57.600,22.800 57.600 C 22.580 57.600,22.400 58.151,22.400 58.824 C 22.400 59.537,22.233 59.944,22.000 59.800 C 21.767 59.656,21.600 60.063,21.600 60.776 C 21.600 61.449,21.420 62.000,21.200 62.000 C 20.980 62.000,20.800 62.889,20.800 63.976 C 20.800 65.063,20.650 66.046,20.466 66.159 C 20.099 66.386,20.352 289.810,20.720 290.769 C 20.845 291.095,21.454 291.892,22.074 292.540 C 22.711 293.207,23.203 294.170,23.206 294.759 C 23.211 295.578,23.295 295.672,23.600 295.200 C 23.894 294.745,23.989 294.914,23.994 295.900 C 23.997 296.615,24.180 297.200,24.400 297.200 C 24.620 297.200,24.800 297.515,24.801 297.900 C 24.802 298.285,25.388 299.590,26.104 300.800 C 26.819 302.010,27.658 303.492,27.967 304.093 C 28.275 304.695,28.859 305.292,29.264 305.420 C 30.096 305.685,30.261 306.386,29.500 306.427 C 29.225 306.442,29.405 306.649,29.900 306.888 C 30.395 307.127,30.800 307.655,30.800 308.061 C 30.800 308.468,30.980 308.800,31.200 308.800 C 31.420 308.800,31.600 309.120,31.600 309.512 C 31.600 309.903,31.960 310.483,32.400 310.800 C 32.840 311.117,33.200 311.621,33.200 311.920 C 33.200 312.218,33.920 313.154,34.800 314.000 C 35.680 314.846,36.400 315.731,36.400 315.969 C 36.400 316.206,36.580 316.400,36.800 316.400 C 37.020 316.400,37.200 316.670,37.200 317.000 C 37.200 317.330,37.380 317.600,37.600 317.600 C 37.820 317.600,38.000 317.960,38.000 318.400 C 38.000 318.840,38.180 319.200,38.400 319.200 C 38.620 319.200,38.800 319.488,38.800 319.840 C 38.800 320.191,39.340 320.983,40.000 321.600 C 40.660 322.217,41.200 322.842,41.200 322.989 C 41.200 323.391,42.288 324.400,42.722 324.400 C 42.931 324.400,43.326 324.670,43.600 325.000 C 43.998 325.480,43.996 325.600,43.588 325.600 C 43.305 325.600,43.473 325.943,43.965 326.370 C 44.453 326.793,44.886 327.288,44.926 327.470 C 44.967 327.651,45.109 327.764,45.243 327.719 C 45.376 327.675,45.736 328.125,46.043 328.719 C 46.349 329.314,46.811 330.024,47.070 330.298 C 47.439 330.690,57.954 330.819,96.070 330.898 L 144.600 331.000 144.600 341.800 L 144.600 352.600 136.147 352.861 C 131.304 353.010,127.343 353.309,126.873 353.561 C 126.422 353.802,125.754 354.000,125.388 354.000 C 121.812 354.000,113.727 360.753,111.397 365.688 C 109.014 370.734,107.588 379.200,109.122 379.200 C 109.522 379.200,110.230 379.555,110.695 379.988 C 111.301 380.552,111.606 380.638,111.771 380.288 C 111.949 379.907,112.051 379.910,112.233 380.300 C 112.362 380.575,112.732 380.800,113.057 380.800 C 113.382 380.800,113.536 380.980,113.400 381.200 C 113.264 381.420,113.513 381.600,113.953 381.600 C 114.393 381.600,114.864 381.780,115.000 382.000 C 115.136 382.220,115.597 382.400,116.024 382.400 C 116.451 382.400,116.800 382.580,116.800 382.800 C 116.800 383.020,117.160 383.200,117.600 383.200 C 118.040 383.200,118.400 383.380,118.400 383.600 C 118.400 383.820,118.760 384.000,119.200 384.000 C 119.640 384.000,120.000 384.180,120.000 384.400 C 120.000 384.620,120.540 384.800,121.200 384.800 C 121.860 384.800,122.400 384.980,122.400 385.200 C 122.400 385.420,122.940 385.600,123.600 385.600 C 124.260 385.600,124.800 385.750,124.800 385.932 C 124.800 386.256,125.969 386.902,128.000 387.700 C 128.550 387.916,129.313 388.252,129.695 388.447 C 130.077 388.641,130.741 388.800,131.171 388.800 C 131.601 388.800,132.064 388.980,132.200 389.200 C 132.336 389.420,133.202 389.603,134.124 389.606 C 135.353 389.611,135.640 389.716,135.200 390.000 C 134.705 390.320,134.744 390.389,135.420 390.394 C 135.871 390.397,136.482 390.625,136.779 390.900 C 137.169 391.262,137.243 391.267,137.046 390.917 C 136.862 390.591,137.136 390.623,137.887 391.014 C 138.499 391.334,139.495 391.596,140.100 391.598 C 140.705 391.599,141.200 391.780,141.200 392.000 C 141.200 392.220,141.830 392.400,142.600 392.400 C 143.370 392.400,144.000 392.546,144.000 392.725 C 144.000 392.904,144.855 393.094,145.900 393.147 C 146.945 393.200,147.860 393.413,147.933 393.621 C 148.007 393.830,148.412 394.000,148.833 394.000 C 149.255 394.000,149.600 394.180,149.600 394.400 C 149.600 394.620,150.320 394.800,151.200 394.800 C 152.080 394.800,152.800 394.980,152.800 395.200 C 152.800 395.422,153.867 395.600,155.200 395.600 C 156.533 395.600,157.600 395.778,157.600 396.000 C 157.600 396.220,158.500 396.400,159.600 396.400 C 160.700 396.400,161.600 396.580,161.600 396.800 C 161.600 397.020,162.129 397.200,162.776 397.200 C 163.423 397.200,164.064 397.380,164.200 397.600 C 164.336 397.820,165.517 398.000,166.824 398.000 C 168.141 398.000,169.200 398.178,169.200 398.400 C 169.200 398.628,170.389 398.800,171.967 398.800 C 173.824 398.800,174.788 398.964,174.900 399.300 C 175.139 400.017,224.685 400.033,225.128 399.316 C 225.306 399.028,226.518 398.802,228.114 398.758 C 229.591 398.717,230.800 398.530,230.800 398.342 C 230.800 398.154,231.880 398.000,233.200 398.000 C 234.533 398.000,235.600 397.822,235.600 397.600 C 235.600 397.380,236.331 397.200,237.224 397.200 C 238.204 397.200,238.749 397.042,238.600 396.800 C 238.449 396.556,239.055 396.400,240.153 396.400 C 241.143 396.400,242.076 396.201,242.226 395.957 C 242.417 395.649,242.604 395.679,242.844 396.057 C 243.097 396.457,243.189 396.468,243.194 396.100 C 243.198 395.767,243.870 395.600,245.200 395.600 C 246.300 395.600,247.200 395.420,247.200 395.200 C 247.200 394.980,247.920 394.800,248.800 394.800 C 249.680 394.800,250.400 394.620,250.400 394.400 C 250.400 394.180,250.760 394.000,251.200 394.000 C 251.640 394.000,252.000 393.820,252.000 393.600 C 252.000 393.380,252.281 393.200,252.624 393.200 C 253.006 393.200,253.138 393.393,252.965 393.700 C 252.739 394.100,252.790 394.100,253.221 393.700 C 253.518 393.425,254.264 393.200,254.880 393.200 C 255.496 393.200,256.000 393.020,256.000 392.800 C 256.000 392.580,256.630 392.400,257.400 392.400 C 258.170 392.400,258.800 392.241,258.800 392.046 C 258.800 391.851,259.792 391.568,261.005 391.417 C 262.218 391.265,263.108 390.974,262.982 390.771 C 262.856 390.567,263.306 390.400,263.982 390.400 C 264.658 390.400,265.568 390.220,266.005 390.000 C 266.442 389.780,267.158 389.420,267.595 389.200 C 268.032 388.980,268.664 388.800,269.000 388.800 C 269.336 388.800,269.923 388.629,270.305 388.419 C 270.687 388.210,271.945 387.626,273.100 387.122 C 274.255 386.617,275.200 386.069,275.200 385.902 C 275.200 385.736,275.639 385.600,276.176 385.600 C 276.713 385.600,277.264 385.420,277.400 385.200 C 277.536 384.980,278.177 384.800,278.824 384.800 C 279.471 384.800,280.000 384.620,280.000 384.400 C 280.000 384.180,280.360 384.000,280.800 384.000 C 281.240 384.000,281.600 383.820,281.600 383.600 C 281.600 383.380,281.960 383.200,282.400 383.200 C 282.840 383.200,283.200 383.020,283.200 382.800 C 283.200 382.580,283.449 382.400,283.754 382.400 C 284.584 382.400,286.427 381.360,286.127 381.061 C 285.984 380.917,286.242 380.800,286.700 380.800 C 287.158 380.800,287.625 380.575,287.736 380.300 C 287.895 379.909,288.021 379.916,288.314 380.334 C 288.618 380.766,288.735 380.747,288.933 380.230 C 289.068 379.879,289.318 379.614,289.489 379.640 C 290.569 379.803,291.599 379.024,291.588 378.053 C 291.536 373.606,290.134 368.179,288.091 364.510 C 285.725 360.261,277.698 354.000,274.618 354.000 C 274.249 354.000,273.578 353.802,273.127 353.561 C 272.657 353.309,268.696 353.010,263.853 352.861 L 255.400 352.600 255.287 342.600 C 255.226 337.100,255.274 332.195,255.395 331.700 L 255.615 330.800 304.026 330.800 L 352.436 330.800 353.418 329.818 C 353.958 329.278,354.400 328.635,354.400 328.390 C 354.400 327.750,355.452 326.785,355.786 327.119 C 355.940 327.274,356.030 327.220,355.986 327.000 C 355.758 325.869,356.014 325.003,356.400 325.600 C 356.708 326.076,356.790 325.993,356.800 325.200 C 356.809 324.488,356.911 324.356,357.155 324.741 C 357.488 325.267,358.800 323.965,358.800 323.107 C 358.800 322.934,359.340 322.228,360.000 321.537 C 360.660 320.846,361.200 320.038,361.200 319.741 C 361.200 319.443,361.380 319.200,361.600 319.200 C 361.820 319.200,362.000 318.852,362.000 318.427 C 362.000 318.002,362.360 317.540,362.800 317.400 C 363.251 317.257,363.600 316.795,363.600 316.342 C 363.600 315.899,364.320 314.846,365.200 314.000 C 366.080 313.154,366.800 312.218,366.800 311.920 C 366.800 311.621,367.160 311.117,367.600 310.800 C 368.040 310.483,368.400 309.925,368.400 309.561 C 368.400 309.196,368.674 308.670,369.010 308.392 C 369.345 308.114,369.519 307.786,369.397 307.664 C 369.275 307.542,369.586 307.214,370.087 306.935 C 370.589 306.656,370.775 306.422,370.500 306.414 C 370.225 306.406,370.000 306.209,370.000 305.976 C 370.000 305.743,370.180 305.664,370.400 305.800 C 370.620 305.936,370.800 305.756,370.800 305.400 C 370.800 305.044,370.964 304.854,371.165 304.979 C 371.366 305.103,371.770 304.664,372.063 304.002 C 372.356 303.341,372.731 302.800,372.898 302.800 C 373.064 302.800,373.200 302.603,373.200 302.362 C 373.200 302.121,373.561 301.416,374.003 300.795 C 374.445 300.175,374.918 299.108,375.055 298.425 C 375.192 297.742,375.460 297.086,375.652 296.968 C 375.843 296.850,376.000 296.313,376.000 295.776 C 376.000 295.239,376.180 294.800,376.400 294.800 C 376.620 294.800,376.800 294.440,376.800 294.000 C 376.800 293.542,377.067 293.200,377.424 293.200 C 377.767 293.200,377.936 293.020,377.800 292.800 C 377.664 292.580,377.743 292.400,377.976 292.400 C 378.209 292.400,378.400 292.222,378.400 292.005 C 378.400 291.787,378.657 291.292,378.972 290.905 C 379.622 290.103,380.182 66.560,379.534 66.159 C 379.350 66.046,379.200 65.063,379.200 63.976 C 379.200 62.889,379.020 62.000,378.800 62.000 C 378.580 62.000,378.400 61.449,378.400 60.776 C 378.400 60.063,378.233 59.656,378.000 59.800 C 377.767 59.944,377.600 59.537,377.600 58.824 C 377.600 58.151,377.420 57.600,377.200 57.600 C 376.980 57.600,376.800 57.240,376.800 56.800 C 376.800 56.360,376.620 56.000,376.400 56.000 C 376.180 56.000,376.000 55.640,376.000 55.200 C 376.000 54.760,375.838 54.400,375.639 54.400 C 375.441 54.400,375.099 53.887,374.881 53.260 C 374.662 52.633,374.060 51.688,373.542 51.160 C 373.024 50.631,372.151 49.532,371.603 48.715 C 371.055 47.899,370.155 46.999,369.603 46.716 C 369.051 46.432,368.130 45.712,367.554 45.116 C 366.979 44.520,365.089 43.378,363.354 42.578 C 361.620 41.778,359.887 40.960,359.505 40.762 C 359.123 40.563,358.358 40.400,357.805 40.400 C 357.252 40.400,356.800 40.220,356.800 40.000 C 356.800 39.780,356.080 39.600,355.200 39.600 C 354.320 39.600,353.600 39.465,353.600 39.300 C 353.600 39.135,284.553 39.000,200.162 39.000 C 115.771 39.000,46.640 39.135,46.538 39.300 M351.400 55.600 C 351.536 55.820,351.980 56.000,352.386 56.000 C 355.812 56.000,361.431 61.866,363.144 67.228 C 363.798 69.277,363.798 272.323,363.144 274.372 C 361.401 279.829,357.290 284.126,352.232 285.776 C 351.181 286.119,49.922 286.097,48.092 285.753 C 43.564 284.904,38.945 280.419,37.236 275.214 L 36.400 272.668 36.404 170.834 C 36.409 59.673,36.242 67.603,38.673 63.137 C 40.385 59.992,45.386 56.000,47.614 56.000 C 48.020 56.000,48.464 55.820,48.600 55.600 C 48.764 55.334,99.663 55.200,200.000 55.200 C 300.337 55.200,351.236 55.334,351.400 55.600 M316.600 108.191 C 315.280 109.178,313.930 110.111,313.600 110.264 C 313.270 110.417,312.910 110.656,312.800 110.795 C 312.690 110.935,310.890 112.204,308.800 113.615 C 306.710 115.027,304.910 116.282,304.800 116.405 C 304.690 116.528,302.984 117.702,301.010 119.014 C 299.035 120.326,297.066 121.715,296.634 122.100 C 296.202 122.485,295.628 122.800,295.358 122.800 C 295.088 122.800,294.807 122.947,294.733 123.128 C 294.660 123.308,293.430 124.239,292.000 125.198 C 290.570 126.156,289.310 127.043,289.200 127.170 C 289.090 127.296,288.710 127.580,288.356 127.800 C 287.704 128.205,282.549 131.762,275.600 136.603 C 273.510 138.059,270.315 140.256,268.500 141.485 L 265.200 143.720 265.200 145.885 C 265.200 155.503,275.248 169.789,285.000 174.036 C 285.440 174.228,286.700 174.924,287.800 175.584 C 288.900 176.243,290.790 177.258,292.000 177.838 C 316.705 189.696,319.755 192.125,319.733 199.916 C 319.719 204.693,318.015 207.313,313.504 209.494 C 304.324 213.931,294.269 212.215,283.600 204.391 C 277.004 199.554,274.367 198.517,271.087 199.474 C 268.644 200.186,268.693 200.376,271.853 202.434 C 273.312 203.385,274.707 204.356,274.953 204.592 C 275.199 204.828,277.650 206.534,280.400 208.383 C 283.150 210.232,285.490 211.847,285.600 211.972 C 285.710 212.098,286.097 212.380,286.459 212.600 C 286.822 212.820,287.902 213.552,288.859 214.227 C 289.817 214.902,293.210 217.236,296.400 219.413 C 299.590 221.590,302.549 223.693,302.975 224.086 C 303.402 224.479,303.972 224.800,304.242 224.800 C 304.512 224.800,304.793 224.943,304.867 225.117 C 304.990 225.411,308.120 227.638,314.353 231.868 C 317.638 234.097,319.025 234.008,325.547 231.147 C 327.461 230.308,327.997 230.037,330.218 228.790 C 335.554 225.793,341.318 218.865,344.023 212.200 C 345.972 207.396,347.091 199.157,346.449 194.332 C 345.366 186.187,345.196 185.245,344.756 184.973 C 344.560 184.852,344.400 184.386,344.400 183.937 C 344.400 183.174,341.342 176.438,340.796 176.000 C 340.659 175.890,339.996 174.990,339.323 174.000 C 336.983 170.560,326.958 162.000,325.268 162.000 C 325.047 162.000,324.807 161.865,324.733 161.700 C 324.545 161.276,320.198 158.986,315.500 156.836 C 295.430 147.650,293.088 146.066,291.611 140.680 C 289.768 133.956,297.861 128.199,309.000 128.311 C 314.643 128.368,319.894 129.636,325.200 132.222 C 331.429 135.259,334.304 135.534,337.526 133.401 C 341.492 130.777,344.544 122.543,343.094 118.382 C 342.335 116.206,339.831 112.800,338.990 112.800 C 338.855 112.800,337.959 112.260,337.000 111.600 C 336.041 110.940,335.061 110.400,334.823 110.400 C 334.584 110.400,334.077 110.241,333.695 110.047 C 331.644 109.004,328.408 108.000,327.095 108.000 C 326.519 108.000,325.949 107.842,325.830 107.649 C 325.711 107.455,324.575 107.196,323.306 107.072 C 322.038 106.948,320.550 106.746,320.000 106.621 C 319.234 106.448,318.439 106.815,316.600 108.191 M172.000 107.681 C 171.450 107.916,170.454 108.344,169.787 108.632 C 168.390 109.234,167.340 110.120,166.086 111.754 C 164.857 113.355,164.697 128.265,165.900 129.084 C 166.285 129.347,167.965 130.515,169.633 131.681 C 171.301 132.846,174.631 135.135,177.033 136.766 C 179.435 138.398,181.460 139.883,181.533 140.066 C 181.607 140.250,181.907 140.400,182.200 140.400 C 182.493 140.400,182.793 140.550,182.867 140.732 C 183.016 141.105,190.087 145.905,191.008 146.258 C 191.519 146.454,191.600 145.382,191.600 138.450 L 191.600 130.415 192.659 130.149 C 194.440 129.702,211.663 130.261,213.000 130.809 C 217.072 132.479,219.685 134.479,221.101 137.009 C 221.497 137.716,221.935 137.493,226.865 134.081 C 229.799 132.050,234.325 128.941,236.921 127.172 C 244.395 122.081,244.036 122.885,240.500 119.151 C 236.626 115.060,233.413 112.886,228.100 110.760 C 227.605 110.562,226.795 110.232,226.300 110.026 C 224.901 109.446,222.821 108.890,220.200 108.396 C 218.880 108.147,217.149 107.776,216.354 107.572 C 214.273 107.037,173.271 107.138,172.000 107.681 M83.672 112.100 C 83.031 113.035,82.098 115.150,81.600 116.800 C 81.101 118.450,80.558 120.160,80.392 120.600 C 80.227 121.040,79.870 122.210,79.600 123.200 C 79.330 124.190,78.970 125.360,78.800 125.800 C 78.630 126.240,78.270 127.410,78.000 128.400 C 77.730 129.390,77.370 130.560,77.200 131.000 C 77.030 131.440,76.670 132.610,76.400 133.600 C 76.130 134.590,75.770 135.760,75.600 136.200 C 75.430 136.640,75.070 137.810,74.800 138.800 C 74.530 139.790,74.170 140.960,74.000 141.400 C 73.830 141.840,73.467 143.010,73.192 144.000 C 72.917 144.990,72.380 146.790,71.998 148.000 C 70.165 153.804,69.895 154.681,69.595 155.800 C 69.237 157.137,66.049 167.780,64.983 171.200 C 64.605 172.410,63.984 174.390,63.602 175.600 C 63.220 176.810,62.683 178.610,62.408 179.600 C 62.133 180.590,61.770 181.760,61.600 182.200 C 61.430 182.640,61.073 183.810,60.807 184.800 C 60.540 185.790,60.160 186.913,59.961 187.295 C 59.762 187.677,59.600 188.341,59.600 188.771 C 59.600 189.201,59.420 189.664,59.200 189.800 C 58.980 189.936,58.800 190.489,58.800 191.029 C 58.800 191.569,58.638 192.323,58.439 192.705 C 58.240 193.087,57.860 194.210,57.593 195.200 C 57.327 196.190,56.970 197.360,56.800 197.800 C 56.630 198.240,56.270 199.410,56.000 200.400 C 55.730 201.390,55.370 202.560,55.200 203.000 C 55.030 203.440,54.665 204.610,54.388 205.600 C 53.863 207.476,53.349 209.170,51.006 216.745 C 49.010 223.195,49.261 226.073,52.021 228.400 C 52.412 228.730,53.137 229.338,53.632 229.752 C 58.352 233.700,69.699 234.950,73.080 231.894 C 74.179 230.900,75.600 227.931,75.600 226.628 C 75.600 226.089,75.780 225.536,76.000 225.400 C 76.220 225.264,76.400 224.634,76.400 224.000 C 76.400 223.366,76.560 222.748,76.756 222.627 C 76.951 222.506,77.209 221.821,77.327 221.104 C 77.685 218.941,78.042 217.444,78.400 216.600 C 78.587 216.160,78.831 215.350,78.942 214.800 C 79.053 214.250,79.337 213.125,79.572 212.300 C 79.807 211.475,80.162 210.165,80.360 209.389 C 81.063 206.636,79.830 206.800,99.835 206.800 C 117.562 206.800,117.982 206.818,118.400 207.600 C 119.004 208.729,119.516 208.612,121.908 206.798 C 123.068 205.919,124.178 205.200,124.375 205.200 C 124.572 205.200,124.793 205.052,124.867 204.872 C 124.974 204.609,137.057 196.141,139.526 194.600 C 141.063 193.640,141.359 193.147,140.870 192.364 C 140.612 191.950,140.400 191.336,140.400 191.000 C 140.400 190.664,140.238 190.077,140.039 189.695 C 139.840 189.313,139.460 188.190,139.193 187.200 C 138.926 186.210,138.560 184.950,138.379 184.400 C 138.199 183.850,137.487 181.510,136.797 179.200 C 136.107 176.890,135.031 173.380,134.405 171.400 C 132.387 165.014,131.200 160.967,131.200 160.472 C 131.200 160.206,131.038 159.677,130.841 159.295 C 130.644 158.913,130.082 157.250,129.593 155.600 C 129.105 153.950,128.567 152.240,128.398 151.800 C 128.229 151.360,127.873 150.190,127.607 149.200 C 127.340 148.210,126.960 147.087,126.761 146.705 C 126.562 146.323,126.400 145.569,126.400 145.029 C 126.400 144.489,126.220 143.936,126.000 143.800 C 125.780 143.664,125.600 143.201,125.600 142.771 C 125.600 142.341,125.442 141.677,125.249 141.295 C 124.759 140.324,124.000 137.848,124.000 137.218 C 124.000 136.463,122.498 135.257,116.400 131.116 C 113.430 129.099,110.910 127.338,110.800 127.203 C 110.690 127.068,107.180 124.641,103.000 121.811 C 98.820 118.981,95.310 116.555,95.200 116.420 C 94.504 115.564,86.311 110.400,85.649 110.400 C 85.145 110.400,84.397 111.043,83.672 112.100 M100.352 141.300 C 101.225 144.044,104.000 154.493,104.000 155.038 C 104.000 155.353,104.162 155.923,104.361 156.305 C 104.560 156.687,104.905 157.720,105.128 158.600 C 106.050 162.234,106.502 163.849,106.842 164.719 C 107.039 165.224,107.200 166.069,107.200 166.595 C 107.200 167.122,107.360 167.652,107.556 167.773 C 107.751 167.894,108.005 168.579,108.119 169.296 C 108.232 170.013,108.539 171.320,108.800 172.200 C 109.061 173.080,109.368 174.387,109.481 175.104 C 109.595 175.821,109.849 176.506,110.044 176.627 C 110.240 176.748,110.400 177.278,110.400 177.805 C 110.400 178.331,110.557 179.176,110.749 179.681 C 111.451 181.531,111.975 183.440,112.235 185.100 L 112.502 186.800 99.651 186.800 C 87.677 186.800,86.800 186.752,86.805 186.100 C 86.809 185.464,87.893 180.962,88.828 177.700 C 89.903 173.946,90.072 173.320,90.258 172.400 C 90.369 171.850,90.613 171.040,90.800 170.600 C 90.987 170.160,91.231 169.350,91.342 168.800 C 91.453 168.250,91.749 167.080,92.000 166.200 C 92.251 165.320,92.547 164.150,92.658 163.600 C 92.769 163.050,93.013 162.240,93.200 161.800 C 93.387 161.360,93.631 160.550,93.742 160.000 C 93.933 159.056,94.315 157.638,95.249 154.400 C 95.471 153.630,95.809 152.370,96.000 151.600 C 96.191 150.830,96.526 149.570,96.746 148.800 C 96.965 148.030,97.498 146.050,97.930 144.400 C 99.212 139.497,99.614 138.982,100.352 141.300 M247.817 155.722 C 247.167 156.205,246.278 156.915,245.842 157.300 C 245.406 157.685,244.813 158.000,244.525 158.000 C 244.236 158.000,244.000 158.150,244.000 158.332 C 244.000 158.515,243.505 158.920,242.900 159.232 C 242.295 159.544,241.710 159.899,241.600 160.020 C 241.490 160.142,240.230 161.043,238.800 162.021 C 237.370 162.999,236.001 163.980,235.758 164.200 C 235.514 164.420,233.329 165.942,230.902 167.582 C 225.860 170.989,225.901 170.809,229.604 173.200 C 231.137 174.190,232.393 175.135,232.396 175.300 C 232.398 175.465,232.670 175.600,233.000 175.600 C 233.330 175.600,233.600 175.750,233.600 175.932 C 233.600 176.115,234.095 176.520,234.700 176.832 C 235.305 177.144,235.890 177.503,236.000 177.629 C 236.110 177.756,239.305 179.973,243.100 182.556 L 250.000 187.252 250.000 171.026 C 250.000 153.445,250.085 154.039,247.817 155.722 M165.200 171.000 C 165.200 174.190,165.262 176.800,165.339 176.800 C 165.415 176.800,165.875 176.455,166.360 176.034 C 166.846 175.613,168.579 174.398,170.213 173.334 C 171.846 172.270,173.255 171.216,173.344 170.990 C 173.484 170.634,166.061 165.200,165.434 165.200 C 165.305 165.200,165.200 167.810,165.200 171.000 M190.742 195.088 C 190.614 195.392,186.821 198.086,180.200 202.573 C 178.880 203.468,177.562 204.425,177.271 204.700 C 176.981 204.975,176.589 205.200,176.400 205.200 C 176.211 205.200,175.819 205.435,175.529 205.722 C 175.238 206.009,173.830 207.032,172.400 207.994 C 170.970 208.957,169.740 209.892,169.667 210.072 C 169.593 210.253,169.323 210.400,169.067 210.401 C 168.810 210.401,167.970 210.941,167.200 211.600 C 166.430 212.259,165.665 212.799,165.500 212.799 C 164.995 212.801,165.144 227.545,165.659 228.526 C 167.159 231.380,170.332 233.043,175.423 233.643 C 180.169 234.203,211.990 233.881,216.200 233.231 C 220.664 232.541,225.755 231.348,226.600 230.793 C 226.820 230.649,228.080 230.111,229.400 229.597 C 230.720 229.084,232.278 228.334,232.862 227.932 C 233.446 227.529,234.121 227.200,234.362 227.200 C 234.603 227.200,234.800 227.059,234.800 226.886 C 234.800 226.714,235.355 226.244,236.034 225.844 C 237.723 224.846,242.800 219.665,242.800 218.940 C 242.800 218.605,242.146 218.112,237.200 214.724 C 234.890 213.141,232.940 211.701,232.867 211.523 C 232.793 211.345,232.512 211.200,232.242 211.200 C 231.972 211.200,231.402 210.875,230.975 210.477 C 230.549 210.080,228.490 208.610,226.400 207.210 C 224.310 205.810,222.540 204.515,222.467 204.332 C 222.178 203.613,220.855 204.058,220.179 205.100 C 219.103 206.759,217.671 207.873,214.800 209.283 L 212.200 210.560 202.000 210.580 L 191.800 210.600 191.600 202.932 C 191.422 196.102,191.193 194.011,190.742 195.088 M146.200 226.126 C 144.220 227.463,142.251 228.881,141.825 229.278 C 141.398 229.675,140.813 230.000,140.525 230.000 C 140.236 230.000,140.000 230.135,139.999 230.300 C 139.999 230.465,139.189 231.112,138.199 231.737 C 135.830 233.233,135.926 233.642,138.500 233.024 C 143.132 231.913,147.237 229.245,149.035 226.176 C 150.610 223.489,150.121 223.480,146.200 226.126 " stroke="none" fill="#234272" fill-rule="evenodd"></path><path id="path4" d="M48.600 55.600 C 48.464 55.820,48.020 56.000,47.614 56.000 C 45.386 56.000,40.385 59.992,38.673 63.137 C 36.242 67.603,36.409 59.673,36.404 170.834 L 36.400 272.668 37.236 275.214 C 39.039 280.706,43.100 284.515,48.600 285.873 C 50.826 286.422,59.840 286.582,60.152 286.078 C 60.261 285.901,58.782 285.831,56.865 285.923 C 46.430 286.422,39.489 282.138,37.545 274.000 C 37.109 272.175,37.105 69.436,37.541 67.594 C 38.866 61.992,43.378 57.546,49.136 56.170 C 52.480 55.370,347.487 55.362,350.828 56.162 C 356.606 57.543,361.208 61.896,362.450 67.154 C 362.850 68.846,362.950 271.927,362.552 274.000 C 361.057 281.791,353.519 286.419,343.135 285.923 C 341.218 285.831,339.739 285.901,339.848 286.078 C 340.131 286.535,349.042 286.460,351.200 285.982 C 356.655 284.775,361.248 280.311,363.144 274.372 C 363.798 272.323,363.798 69.277,363.144 67.228 C 361.431 61.866,355.812 56.000,352.386 56.000 C 351.980 56.000,351.536 55.820,351.400 55.600 C 351.236 55.334,300.337 55.200,200.000 55.200 C 99.663 55.200,48.764 55.334,48.600 55.600 M316.554 107.629 C 315.259 108.524,312.130 110.679,309.600 112.417 C 307.070 114.155,301.580 117.952,297.400 120.855 C 288.839 126.801,283.251 130.666,272.117 138.343 L 264.434 143.640 264.650 146.320 C 264.768 147.794,265.010 149.450,265.186 150.000 C 265.363 150.550,265.729 151.810,266.001 152.800 C 267.670 158.884,273.290 166.613,278.800 170.399 C 279.570 170.928,280.290 171.486,280.400 171.639 C 281.027 172.508,288.623 176.673,298.132 181.362 C 314.944 189.653,317.835 191.944,319.206 198.069 C 320.946 205.846,314.559 210.916,303.000 210.933 C 294.948 210.945,291.512 209.619,282.381 202.978 C 275.617 198.059,272.276 197.280,268.695 199.789 C 267.821 200.401,267.709 200.296,273.410 204.200 C 276.769 206.501,288.891 214.864,292.251 217.200 C 292.726 217.530,295.339 219.338,298.057 221.218 C 300.776 223.098,306.203 226.854,310.117 229.566 L 317.235 234.496 319.549 233.846 C 323.145 232.837,328.814 230.288,331.637 228.411 C 334.067 226.795,340.400 220.712,340.400 219.993 C 340.400 219.808,340.628 219.419,340.906 219.129 C 347.750 211.974,348.958 191.407,343.229 179.570 C 338.202 169.184,330.802 163.298,311.800 154.575 C 294.737 146.742,292.259 144.771,292.224 139.000 C 292.161 128.506,309.818 125.471,326.079 133.180 C 334.025 136.946,338.859 135.467,342.156 128.259 C 346.295 119.209,343.226 113.189,332.200 108.733 C 330.340 107.982,320.939 106.013,319.154 106.002 C 319.019 106.001,317.849 106.733,316.554 107.629 M173.800 106.776 C 166.217 108.007,164.425 110.884,164.410 121.853 L 164.400 128.706 169.813 132.453 C 172.790 134.514,177.065 137.463,179.313 139.006 C 181.561 140.549,185.290 143.125,187.600 144.730 L 191.800 147.649 192.000 139.125 L 192.200 130.600 199.000 130.489 C 212.819 130.265,216.975 131.616,220.843 137.589 L 221.483 138.578 224.842 136.160 C 226.689 134.830,231.260 131.644,235.000 129.080 C 238.740 126.516,242.308 124.007,242.928 123.504 L 244.057 122.590 241.714 119.801 C 237.934 115.300,233.701 112.303,228.400 110.375 C 227.630 110.095,226.820 109.749,226.600 109.605 C 226.038 109.239,223.627 108.573,219.200 107.563 C 215.122 106.632,178.589 105.999,173.800 106.776 M323.306 107.072 C 324.575 107.196,325.711 107.455,325.830 107.649 C 325.949 107.842,326.519 108.000,327.095 108.000 C 328.408 108.000,331.644 109.004,333.695 110.047 C 334.077 110.241,334.584 110.400,334.823 110.400 C 335.061 110.400,336.041 110.940,337.000 111.600 C 337.959 112.260,338.855 112.800,338.990 112.800 C 339.831 112.800,342.335 116.206,343.094 118.382 C 344.544 122.543,341.492 130.777,337.526 133.401 C 334.304 135.534,331.429 135.259,325.200 132.222 C 319.894 129.636,314.643 128.368,309.000 128.311 C 297.861 128.199,289.768 133.956,291.611 140.680 C 293.088 146.066,295.430 147.650,315.500 156.836 C 320.198 158.986,324.545 161.276,324.733 161.700 C 324.807 161.865,325.047 162.000,325.268 162.000 C 326.958 162.000,336.983 170.560,339.323 174.000 C 339.996 174.990,340.659 175.890,340.796 176.000 C 341.342 176.438,344.400 183.174,344.400 183.937 C 344.400 184.386,344.560 184.852,344.756 184.973 C 345.196 185.245,345.366 186.187,346.449 194.332 C 347.022 198.640,346.428 204.104,344.746 210.000 C 342.735 217.051,336.300 225.374,330.218 228.790 C 321.483 233.696,318.034 234.365,314.353 231.868 C 308.120 227.638,304.990 225.411,304.867 225.117 C 304.793 224.943,304.512 224.800,304.242 224.800 C 303.972 224.800,303.402 224.479,302.975 224.086 C 302.549 223.693,299.590 221.590,296.400 219.413 C 293.210 217.236,289.817 214.902,288.859 214.227 C 287.902 213.552,286.822 212.820,286.459 212.600 C 286.097 212.380,285.710 212.098,285.600 211.972 C 285.490 211.847,283.150 210.232,280.400 208.383 C 277.650 206.534,275.199 204.828,274.953 204.592 C 274.707 204.356,273.312 203.385,271.853 202.434 C 268.693 200.376,268.644 200.186,271.087 199.474 C 274.367 198.517,277.004 199.554,283.600 204.391 C 294.269 212.215,304.324 213.931,313.504 209.494 C 318.015 207.313,319.719 204.693,319.733 199.916 C 319.755 192.125,316.705 189.696,292.000 177.838 C 290.790 177.258,288.900 176.243,287.800 175.584 C 286.700 174.924,285.440 174.228,285.000 174.036 C 275.248 169.789,265.200 155.503,265.200 145.885 L 265.200 143.720 268.500 141.485 C 270.315 140.256,273.510 138.059,275.600 136.603 C 282.549 131.762,287.704 128.205,288.356 127.800 C 288.710 127.580,289.090 127.296,289.200 127.170 C 289.310 127.043,290.570 126.156,292.000 125.198 C 293.430 124.239,294.660 123.308,294.733 123.128 C 294.807 122.947,295.088 122.800,295.358 122.800 C 295.628 122.800,296.202 122.485,296.634 122.100 C 297.066 121.715,299.035 120.326,301.010 119.014 C 302.984 117.702,304.690 116.528,304.800 116.405 C 304.910 116.282,306.710 115.027,308.800 113.615 C 310.890 112.204,312.690 110.935,312.800 110.795 C 312.910 110.656,313.270 110.417,313.600 110.264 C 313.930 110.111,315.280 109.178,316.600 108.191 C 318.439 106.815,319.234 106.448,320.000 106.621 C 320.550 106.746,322.038 106.948,323.306 107.072 M216.354 107.572 C 217.149 107.776,218.880 108.147,220.200 108.396 C 222.821 108.890,224.901 109.446,226.300 110.026 C 226.795 110.232,227.605 110.562,228.100 110.760 C 233.413 112.886,236.626 115.060,240.500 119.151 C 244.036 122.885,244.395 122.081,236.921 127.172 C 234.325 128.941,229.799 132.050,226.865 134.081 C 221.935 137.493,221.497 137.716,221.101 137.009 C 219.685 134.479,217.072 132.479,213.000 130.809 C 211.663 130.261,194.440 129.702,192.659 130.149 L 191.600 130.415 191.600 138.450 C 191.600 145.382,191.519 146.454,191.008 146.258 C 190.087 145.905,183.016 141.105,182.867 140.732 C 182.793 140.550,182.493 140.400,182.200 140.400 C 181.907 140.400,181.607 140.250,181.533 140.066 C 181.460 139.883,179.435 138.398,177.033 136.766 C 174.631 135.135,171.301 132.846,169.633 131.681 C 167.965 130.515,166.285 129.347,165.900 129.084 C 164.697 128.265,164.857 113.355,166.086 111.754 C 167.340 110.120,168.390 109.234,169.787 108.632 C 170.454 108.344,171.450 107.916,172.000 107.681 C 173.271 107.138,214.273 107.037,216.354 107.572 M84.293 110.534 C 83.006 111.821,81.200 115.053,81.200 116.069 C 81.200 116.332,80.856 117.549,80.435 118.773 C 80.014 119.998,79.272 122.350,78.786 124.000 C 78.300 125.650,77.589 127.990,77.207 129.200 C 76.824 130.410,76.104 132.750,75.607 134.400 C 75.110 136.050,74.552 137.850,74.367 138.400 C 74.182 138.950,73.106 142.460,71.975 146.200 C 70.844 149.940,69.562 154.170,69.126 155.600 C 68.690 157.030,68.190 158.740,68.014 159.400 C 67.839 160.060,67.430 161.410,67.107 162.400 C 66.784 163.390,66.107 165.550,65.604 167.200 C 65.101 168.850,64.378 171.190,63.998 172.400 C 63.618 173.610,63.079 175.410,62.800 176.400 C 62.521 177.390,61.969 179.190,61.574 180.400 C 60.723 183.003,59.654 186.522,59.204 188.200 C 59.027 188.860,57.415 194.170,55.622 200.000 C 53.829 205.830,51.819 212.400,51.155 214.600 C 50.491 216.800,49.759 219.092,49.528 219.694 C 48.883 221.374,48.975 224.518,49.715 226.077 C 51.766 230.400,59.821 234.400,66.475 234.400 C 71.017 234.400,74.515 232.234,75.557 228.776 C 75.852 227.799,76.234 226.550,76.406 226.000 C 76.578 225.450,77.274 222.930,77.953 220.400 C 78.632 217.870,79.686 214.000,80.295 211.800 L 81.403 207.800 99.401 207.691 L 117.400 207.583 118.132 208.475 C 119.008 209.543,118.319 209.899,126.885 203.963 C 130.248 201.632,134.934 198.392,137.297 196.763 C 141.991 193.527,141.929 193.637,140.855 190.427 C 140.446 189.202,139.701 186.850,139.200 185.200 C 138.699 183.550,137.976 181.210,137.593 180.000 C 137.211 178.790,136.497 176.450,136.007 174.800 C 135.517 173.150,134.708 170.540,134.208 169.000 C 133.708 167.460,132.881 164.775,132.371 163.034 C 131.861 161.292,131.376 160.071,131.293 160.320 C 131.148 160.755,132.002 163.794,134.405 171.400 C 135.031 173.380,136.107 176.890,136.797 179.200 C 137.487 181.510,138.199 183.850,138.379 184.400 C 138.560 184.950,138.926 186.210,139.193 187.200 C 139.460 188.190,139.840 189.313,140.039 189.695 C 140.238 190.077,140.400 190.664,140.400 191.000 C 140.400 191.336,140.612 191.950,140.870 192.364 C 141.359 193.147,141.063 193.640,139.526 194.600 C 137.057 196.141,124.974 204.609,124.867 204.872 C 124.793 205.052,124.572 205.200,124.375 205.200 C 124.178 205.200,123.068 205.919,121.908 206.798 C 119.516 208.612,119.004 208.729,118.400 207.600 C 117.982 206.818,117.562 206.800,99.835 206.800 C 79.760 206.800,81.065 206.620,80.338 209.489 C 80.127 210.320,79.773 211.630,79.550 212.400 C 79.327 213.170,79.053 214.250,78.942 214.800 C 78.831 215.350,78.587 216.160,78.400 216.600 C 78.042 217.444,77.685 218.941,77.327 221.104 C 77.209 221.821,76.951 222.506,76.756 222.627 C 76.560 222.748,76.400 223.366,76.400 224.000 C 76.400 224.634,76.220 225.264,76.000 225.400 C 75.780 225.536,75.600 226.089,75.600 226.628 C 75.600 227.931,74.179 230.900,73.080 231.894 C 69.699 234.950,58.352 233.700,53.632 229.752 C 53.137 229.338,52.412 228.730,52.021 228.400 C 49.261 226.073,49.010 223.195,51.006 216.745 C 53.349 209.170,53.863 207.476,54.388 205.600 C 54.665 204.610,55.030 203.440,55.200 203.000 C 55.370 202.560,55.730 201.390,56.000 200.400 C 56.270 199.410,56.630 198.240,56.800 197.800 C 56.970 197.360,57.327 196.190,57.593 195.200 C 57.860 194.210,58.240 193.087,58.439 192.705 C 58.638 192.323,58.800 191.569,58.800 191.029 C 58.800 190.489,58.980 189.936,59.200 189.800 C 59.420 189.664,59.600 189.201,59.600 188.771 C 59.600 188.341,59.762 187.677,59.961 187.295 C 60.160 186.913,60.540 185.790,60.807 184.800 C 61.073 183.810,61.430 182.640,61.600 182.200 C 61.770 181.760,62.133 180.590,62.408 179.600 C 62.683 178.610,63.220 176.810,63.602 175.600 C 63.984 174.390,64.605 172.410,64.983 171.200 C 66.049 167.780,69.237 157.137,69.595 155.800 C 69.895 154.681,70.165 153.804,71.998 148.000 C 72.380 146.790,72.917 144.990,73.192 144.000 C 73.467 143.010,73.830 141.840,74.000 141.400 C 74.170 140.960,74.530 139.790,74.800 138.800 C 75.070 137.810,75.430 136.640,75.600 136.200 C 75.770 135.760,76.130 134.590,76.400 133.600 C 76.670 132.610,77.030 131.440,77.200 131.000 C 77.370 130.560,77.730 129.390,78.000 128.400 C 78.270 127.410,78.630 126.240,78.800 125.800 C 78.970 125.360,79.330 124.190,79.600 123.200 C 79.870 122.210,80.227 121.040,80.392 120.600 C 80.558 120.160,81.101 118.450,81.600 116.800 C 82.669 113.258,84.478 110.400,85.649 110.400 C 86.311 110.400,94.504 115.564,95.200 116.420 C 95.310 116.555,98.820 118.981,103.000 121.811 C 107.180 124.641,110.690 127.068,110.800 127.203 C 110.910 127.338,113.430 129.099,116.400 131.116 C 122.498 135.257,124.000 136.463,124.000 137.218 C 124.000 137.848,124.759 140.324,125.249 141.295 C 125.442 141.677,125.600 142.341,125.600 142.771 C 125.600 143.201,125.780 143.664,126.000 143.800 C 126.220 143.936,126.400 144.489,126.400 145.029 C 126.400 145.569,126.562 146.323,126.761 146.705 C 126.960 147.087,127.340 148.210,127.607 149.200 C 127.873 150.190,128.229 151.360,128.398 151.800 C 128.648 152.451,129.929 156.620,130.659 159.157 C 130.747 159.464,130.913 159.621,131.028 159.506 C 131.233 159.300,130.076 155.222,127.590 147.400 C 126.891 145.200,126.168 142.860,125.985 142.200 C 125.801 141.540,125.327 139.859,124.931 138.465 L 124.211 135.929 119.806 132.829 C 115.306 129.663,95.955 116.254,89.322 111.706 L 85.643 109.184 84.293 110.534 M99.000 140.700 C 98.843 141.085,98.361 142.750,97.930 144.400 C 97.498 146.050,96.965 148.030,96.746 148.800 C 96.526 149.570,96.191 150.830,96.000 151.600 C 95.809 152.370,95.471 153.630,95.249 154.400 C 94.315 157.638,93.933 159.056,93.742 160.000 C 93.631 160.550,93.387 161.360,93.200 161.800 C 93.013 162.240,92.769 163.050,92.658 163.600 C 92.547 164.150,92.251 165.320,92.000 166.200 C 91.749 167.080,91.453 168.250,91.342 168.800 C 91.231 169.350,90.987 170.160,90.800 170.600 C 90.613 171.040,90.369 171.850,90.258 172.400 C 90.072 173.320,89.903 173.946,88.828 177.700 C 87.893 180.962,86.809 185.464,86.805 186.100 C 86.800 186.752,87.677 186.800,99.651 186.800 L 112.502 186.800 112.235 185.100 C 111.975 183.440,111.451 181.531,110.749 179.681 C 110.557 179.176,110.400 178.331,110.400 177.805 C 110.400 177.278,110.240 176.748,110.044 176.627 C 109.849 176.506,109.595 175.821,109.481 175.104 C 109.368 174.387,109.061 173.080,108.800 172.200 C 108.539 171.320,108.232 170.013,108.119 169.296 C 108.005 168.579,107.751 167.894,107.556 167.773 C 107.360 167.652,107.200 167.122,107.200 166.595 C 107.200 166.069,107.039 165.224,106.842 164.719 C 106.509 163.865,106.184 162.711,105.120 158.600 C 104.456 156.034,104.393 155.874,104.153 156.114 C 104.027 156.240,104.563 158.651,105.345 161.471 C 106.889 167.042,107.633 169.778,108.859 174.400 C 109.738 177.713,110.234 179.494,110.863 181.600 C 111.094 182.370,111.372 183.675,111.483 184.500 L 111.684 186.000 99.600 186.000 L 87.516 186.000 87.717 184.500 C 87.828 183.675,88.104 182.370,88.331 181.600 C 88.559 180.830,89.130 178.760,89.600 177.000 C 90.070 175.240,90.610 173.260,90.800 172.600 C 91.096 171.568,91.673 169.431,93.175 163.800 C 93.351 163.140,94.602 158.550,95.956 153.600 C 97.309 148.650,98.617 143.830,98.863 142.890 C 99.297 141.228,100.004 140.220,99.996 141.276 C 99.987 142.283,103.762 155.713,103.920 155.239 C 104.008 154.975,103.506 152.654,102.805 150.080 C 99.953 139.607,99.700 138.984,99.000 140.700 M244.195 157.692 C 240.893 159.952,237.810 162.070,237.343 162.400 C 236.877 162.730,234.359 164.484,231.748 166.299 C 224.747 171.163,225.252 170.663,226.418 171.582 C 227.510 172.443,237.006 179.042,245.000 184.495 L 250.200 188.042 250.308 179.421 C 250.367 174.679,250.367 166.927,250.308 162.192 L 250.200 153.585 244.195 157.692 M250.000 171.026 L 250.000 187.252 243.100 182.556 C 239.305 179.973,236.110 177.756,236.000 177.629 C 235.890 177.503,235.305 177.144,234.700 176.832 C 234.095 176.520,233.600 176.115,233.600 175.932 C 233.600 175.750,233.330 175.600,233.000 175.600 C 232.670 175.600,232.398 175.465,232.396 175.300 C 232.393 175.135,231.137 174.190,229.604 173.200 C 225.901 170.809,225.860 170.989,230.902 167.582 C 233.329 165.942,235.514 164.420,235.758 164.200 C 236.001 163.980,237.370 162.999,238.800 162.021 C 240.230 161.043,241.490 160.142,241.600 160.020 C 241.710 159.899,242.295 159.544,242.900 159.232 C 243.505 158.920,244.000 158.515,244.000 158.332 C 244.000 158.150,244.236 158.000,244.525 158.000 C 244.813 158.000,245.406 157.685,245.842 157.300 C 247.366 155.954,249.004 154.844,249.500 154.822 C 249.892 154.805,250.000 158.300,250.000 171.026 M164.647 164.286 C 164.326 164.608,164.324 176.990,164.645 177.312 C 164.780 177.447,166.715 176.313,168.945 174.793 C 173.703 171.549,174.602 170.863,174.371 170.652 C 174.277 170.566,173.390 169.929,172.400 169.236 C 166.525 165.123,164.868 164.065,164.647 164.286 M169.587 167.890 C 174.113 170.997,174.091 170.808,170.213 173.334 C 168.579 174.398,166.846 175.613,166.360 176.034 C 165.875 176.455,165.415 176.800,165.339 176.800 C 165.262 176.800,165.200 174.190,165.200 171.000 C 165.200 167.810,165.305 165.200,165.434 165.200 C 165.562 165.200,167.431 166.411,169.587 167.890 M188.400 196.311 C 186.530 197.602,182.300 200.513,179.000 202.781 C 175.700 205.049,171.065 208.275,168.700 209.949 L 164.400 212.994 164.410 219.397 C 164.431 233.815,165.458 234.364,192.458 234.386 C 212.270 234.402,222.464 233.539,225.513 231.585 C 226.083 231.220,226.030 231.190,225.200 231.407 C 217.951 233.307,214.211 233.629,196.566 233.870 C 172.086 234.203,168.298 233.548,165.659 228.526 C 165.144 227.545,164.995 212.801,165.500 212.799 C 165.665 212.799,166.430 212.259,167.200 211.600 C 167.970 210.941,168.810 210.401,169.067 210.401 C 169.323 210.400,169.593 210.253,169.667 210.072 C 169.740 209.892,170.970 208.957,172.400 207.994 C 173.830 207.032,175.238 206.009,175.529 205.722 C 175.819 205.435,176.211 205.200,176.400 205.200 C 176.589 205.200,176.981 204.975,177.271 204.700 C 177.562 204.425,178.880 203.468,180.200 202.573 C 186.801 198.099,190.629 195.395,190.894 195.018 C 191.337 194.388,191.340 194.426,191.578 202.800 L 191.800 210.600 202.000 210.580 L 212.200 210.560 214.800 209.283 C 217.671 207.873,219.103 206.759,220.179 205.100 C 220.855 204.058,222.178 203.613,222.467 204.332 C 222.540 204.515,224.310 205.810,226.400 207.210 C 228.490 208.610,230.549 210.080,230.975 210.477 C 231.402 210.875,231.972 211.200,232.242 211.200 C 232.512 211.200,232.793 211.345,232.867 211.523 C 232.940 211.701,234.890 213.141,237.200 214.724 C 242.146 218.112,242.800 218.605,242.800 218.940 C 242.800 219.665,237.723 224.846,236.034 225.844 C 235.355 226.244,234.800 226.714,234.800 226.886 C 234.800 227.059,234.603 227.200,234.362 227.200 C 234.121 227.200,233.446 227.530,232.862 227.934 C 231.923 228.583,230.881 229.050,227.245 230.454 C 226.719 230.656,226.382 230.915,226.496 231.029 C 227.950 232.484,240.056 224.124,242.820 219.757 L 243.607 218.513 241.903 217.362 C 240.967 216.729,239.570 215.742,238.800 215.168 C 235.806 212.936,221.528 203.200,221.249 203.200 C 221.086 203.200,220.441 203.875,219.815 204.700 C 216.257 209.390,213.820 210.130,201.800 210.169 L 192.200 210.200 192.000 202.082 L 191.800 193.965 188.400 196.311 M146.544 225.300 C 144.537 226.675,140.984 229.109,138.648 230.709 C 133.083 234.520,133.010 234.889,138.077 233.612 C 144.258 232.055,150.000 227.991,150.000 225.174 C 150.000 224.882,149.469 225.481,148.819 226.505 C 146.954 229.446,143.068 231.898,138.500 233.014 C 135.926 233.644,135.829 233.234,138.199 231.737 C 139.189 231.112,139.999 230.465,139.999 230.300 C 140.000 230.135,140.236 230.000,140.525 230.000 C 140.813 230.000,141.398 229.675,141.825 229.277 C 143.710 227.521,149.949 223.643,150.138 224.110 C 150.248 224.379,150.351 224.195,150.368 223.700 C 150.409 222.556,150.769 222.405,146.544 225.300 " stroke="none" fill="#755478" fill-rule="evenodd"></path></g></svg>